<?xml version="1.0" encoding="UTF-8"?>
<svg id="_Слой_2" data-name="Слой_2" xmlns="http://www.w3.org/2000/svg" version="1.1" viewBox="0 0 120 58.7">
  <!-- Generator: Adobe Illustrator 30.0.0, SVG Export Plug-In . SVG Version: 2.1.1 Build 123)  -->
  <defs>
    <style>
      .st0 {
        fill: #fff;
      }

      .st1 {
        fill: #00a0dc;
      }

      .st2 {
        fill: #55565b;
      }

      .st3 {
        fill: #ef2b2d;
      }

      .st4 {
        fill: #cacac7;
      }
    </style>
  </defs>
  <path class="st2" d="M7.2,9.5c0,.5,0,.8-.2,1.2-.2.3-.4.6-.6.8-.3.2-.6.4-.9.5-.3.1-.7.2-1,.2v.8h-1.7v-.8h0c-.5,0-.9-.2-1.3-.3-.4-.2-.6-.4-.9-.7-.2-.3-.4-.6-.5-.9,0-.4-.1-.8-.1-1.2v-3.5c0-.4,0-.8.2-1.2s.4-.6.6-.9c.3-.2.6-.4.9-.5.3-.1.7-.2,1-.2v-.5h1.7v.5c.4,0,.7,0,1,.2.3.1.6.3.9.5.3.2.5.5.6.9.2.3.2.7.2,1.2v3.8ZM2.8,4.3c-.4,0-.7.2-.9.4-.2.2-.3.5-.3.9v4.1c0,.2,0,.4.1.5,0,.1.2.3.3.4.1.1.2.2.4.2.1,0,.3,0,.4.1v-6.6ZM5.7,5.6c0-.4-.1-.7-.3-.9-.2-.2-.5-.3-.9-.4v6.6c.1,0,.3,0,.4-.1.1,0,.3-.1.4-.2.1-.1.2-.2.3-.4,0-.1.1-.3.1-.5v-4.1Z"/>
  <path class="st2" d="M15.5,10.4c0,.9-.2,1.6-.6,2.1-.4.5-1.1.7-2,.7s-1.6-.2-2-.7c-.4-.5-.6-1.1-.6-2v-5.4c0-.4,0-.8.1-1.2,0-.3.2-.6.5-.9.2-.3.5-.4.8-.6.3-.1.7-.2,1.2-.2s.9,0,1.2.2c.3.1.6.3.8.6.2.2.3.5.4.9,0,.3.1.7.1,1.2v5.2ZM13.8,5c0-.3,0-.6-.2-.8-.1-.2-.4-.4-.7-.4s-.4,0-.5.1c-.1,0-.2.2-.3.3,0,.1-.1.3-.1.4,0,.2,0,.3,0,.4v5.4c0,.3,0,.5.2.7.1.2.4.3.7.3s.6-.1.7-.3c.1-.2.2-.5.2-.8v-5.4Z"/>
  <path class="st2" d="M22.3,13.1v-4.7h-1.9v4.7h-1.7V2.4h1.7v4.5h1.9V2.4h1.7v10.7h-1.7Z"/>
  <path class="st2" d="M27.9,13.1v2h-1.4v-3.4h.6c.3-.4.5-.8.6-1.2.1-.4.2-.9.2-1.6l.2-6.5h4.8v9.2h.7v3.5h-1.4v-2h-4.3ZM29.4,8.9c0,.6,0,1.1-.1,1.6,0,.4-.2.8-.4,1.1h2.3V4h-1.7v4.9Z"/>
  <path class="st2" d="M43.7,2.3c.4,0,.8,0,1.1.2.3.1.6.3.8.5.2.2.4.5.5.8,0,.3.1.6.1,1l-1.6.4c0-.4,0-.7-.2-1-.1-.2-.4-.4-.7-.4s-.4,0-.5.1c-.1,0-.2.2-.3.3,0,.1-.1.3-.1.4,0,.1,0,.3,0,.4v5.4c0,.1,0,.2,0,.3,0,.1,0,.2.1.3,0,.1.2.2.3.3.1,0,.3.1.5.1.6,0,.9-.4.9-1.3.3,0,.6,0,.8.1.3,0,.6,0,.8.1,0,.8-.2,1.5-.7,1.9-.4.5-1.1.7-1.9.7s-1.5-.2-2-.7c-.4-.4-.6-1.1-.6-2v-5.3c0-.4,0-.8.1-1.1,0-.4.2-.7.4-.9.2-.3.5-.5.8-.6.3-.2.7-.2,1.2-.2Z"/>
  <path class="st2" d="M54.2,10.4c0,.9-.2,1.6-.6,2.1-.4.5-1.1.7-2,.7s-1.6-.2-2-.7c-.4-.5-.6-1.1-.6-2v-5.4c0-.4,0-.8.1-1.2,0-.3.3-.6.5-.9.2-.3.5-.4.8-.6.3-.1.7-.2,1.2-.2s.9,0,1.2.2c.3.1.6.3.8.6.2.2.3.5.4.9,0,.3.1.7.1,1.2v5.2ZM52.5,5c0-.3,0-.6-.2-.8-.1-.2-.4-.4-.7-.4s-.4,0-.5.1c-.1,0-.2.2-.3.3,0,.1-.1.3-.1.4,0,.2,0,.3,0,.4v5.4c0,.3,0,.5.2.7.1.2.4.3.7.3s.6-.1.7-.3c.1-.2.2-.5.2-.8v-5.4Z"/>
  <path class="st2" d="M58.1,13.1v2h-1.4v-3.4h.6c.3-.4.5-.8.6-1.2.1-.4.2-.9.2-1.6l.2-6.5h4.8v9.2h.7v3.5h-1.4v-2h-4.3ZM59.6,8.9c0,.6,0,1.1-.1,1.6,0,.4-.2.8-.4,1.1h2.3V4h-1.7v4.9Z"/>
  <path class="st2" d="M66.5,13.1V2.4h4.8v1.6h-3.1v2.9h2.7v1.6h-2.7v3.1h3.1v1.6h-4.8Z"/>
  <path class="st2" d="M77.9,6.4l-2.3,6.7h-1.6V2.4h1.6v6.8h0l2.3-6.8h1.6v10.7h-1.6v-6.7h0ZM75.9,0c0,.1,0,.2.1.3,0,.1.1.2.2.3,0,.1.2.2.3.3.1,0,.2,0,.4,0s.3,0,.4,0c.1,0,.2-.2.3-.3,0-.1.1-.2.2-.3,0-.1,0-.2,0-.3h1.2c0,.2,0,.4-.2.7,0,.3-.2.5-.4.7-.2.2-.4.4-.7.5-.3.1-.6.2-1,.2s-.7,0-1-.2c-.3-.1-.5-.3-.7-.5-.2-.2-.3-.4-.4-.7,0-.3-.1-.5-.1-.7h1.2Z"/>
  <path class="st2" d="M85.3,2.3c.4,0,.8,0,1.1.2.3.1.6.3.8.5.2.2.4.5.5.8,0,.3.1.6.1,1l-1.6.4c0-.4,0-.7-.2-1-.1-.2-.4-.4-.7-.4s-.4,0-.5.1c-.1,0-.2.2-.3.3,0,.1-.1.3-.1.4,0,.1,0,.3,0,.4v5.4c0,.1,0,.2,0,.3,0,.1,0,.2.1.3,0,.1.2.2.3.3.1,0,.3.1.5.1.6,0,.9-.4.9-1.3.3,0,.6,0,.8.1.3,0,.6,0,.8.1,0,.8-.2,1.5-.7,1.9-.4.5-1.1.7-1.9.7s-1.5-.2-2-.7c-.4-.4-.6-1.1-.6-2v-5.3c0-.4,0-.8.1-1.1,0-.4.2-.7.4-.9.2-.3.5-.5.8-.6.3-.2.7-.2,1.2-.2Z"/>
  <path class="st2" d="M93.4,4v9.2h-1.7V4h-1.7v-1.6h5.2v1.6h-1.7Z"/>
  <path class="st2" d="M101.5,7.5c.5.2.8.4,1,.9.2.4.3.9.3,1.5,0,1.1-.2,1.9-.7,2.5-.5.5-1.2.8-2.2.8h-2.2V2.4h2.4c1,0,1.6.2,2.1.7.4.5.6,1.2.6,2.2s0,.9-.3,1.3c-.2.4-.5.6-.9.8h0ZM101.1,5.4c0-.5,0-.8-.3-1.1-.2-.2-.5-.3-1-.3h-.5v2.8h.5c.4,0,.8-.1,1-.4.2-.2.3-.6.3-1ZM101.2,9.8c0-.5,0-.9-.3-1.1-.2-.2-.5-.4-1-.4h-.6v3.3h.7c.3,0,.5,0,.6-.1.2,0,.3-.2.4-.4,0-.2.1-.4.2-.6,0-.2,0-.5,0-.7Z"/>
  <path class="st2" d="M109.7,6.4l-2.3,6.7h-1.6V2.4h1.6v6.8h0l2.3-6.8h1.6v10.7h-1.6v-6.7h0Z"/>
  <path class="st2" d="M114.2,13.1l.6-3.4c0-.4.2-.7.3-1,.2-.3.4-.5.7-.7-.5-.2-.8-.5-1-.9-.2-.4-.3-.9-.3-1.5,0-1.1.3-1.9.8-2.4.5-.5,1.2-.8,2.1-.8h2.5v10.7h-1.7v-4.6h-.4c-.3,0-.6.1-.8.3-.2.2-.4.6-.5,1.2l-.5,3h-1.7ZM117.5,4c-.5,0-.9.2-1.1.5-.2.3-.3.7-.3,1.2s.1.9.4,1.1c.3.2.6.3,1,.3h.7v-3h-.7Z"/>
  <path class="st2" d="M5.1,22.1l-2.8,8.3H.2v-13.3h2v8.4h0l2.8-8.4h2v13.3h-2v-8.3h0Z"/>
  <path class="st2" d="M17.3,30.4v-5.8h-2.4v5.8h-2.1v-13.3h2.1v5.6h2.4v-5.6h2.1v13.3h-2.1Z"/>
  <path class="st2" d="M29.6,30.4v-5.8h-2.4v5.8h-2.1v-13.3h2.1v5.6h2.4v-5.6h2.1v13.3h-2.1Z"/>
  <path class="st2" d="M43.8,27c0,1.2-.3,2-.8,2.6-.5.6-1.3.9-2.5.9s-1.9-.3-2.5-.8c-.5-.6-.8-1.4-.8-2.5v-6.7c0-.5,0-1,.2-1.4.1-.4.3-.8.6-1.1.3-.3.6-.6,1-.7.4-.2.9-.3,1.5-.3s1.1,0,1.5.2c.4.2.7.4,1,.7.2.3.4.7.5,1.1.1.4.2.9.2,1.5v6.5ZM41.8,20.3c0-.4,0-.7-.2-1-.2-.3-.5-.4-.9-.4s-.4,0-.6.2c-.2.1-.3.2-.4.4,0,.2-.1.3-.2.5,0,.2,0,.4,0,.5v6.7c0,.3,0,.7.3.9.2.3.5.4.9.4s.7-.1.9-.4c.2-.3.3-.6.3-1v-6.8Z"/>
  <path class="st2" d="M54.4,23.4c.6.2,1,.6,1.2,1.1.2.5.3,1.1.3,1.8,0,1.4-.3,2.4-.9,3.1-.6.6-1.5,1-2.7,1h-2.8v-13.3h2.9c1.2,0,2,.3,2.6.9.5.6.8,1.5.8,2.7s-.1,1.1-.3,1.6c-.2.5-.6.8-1.1,1h0ZM53.8,20.7c0-.6-.1-1-.4-1.3-.2-.3-.6-.4-1.2-.4h-.7v3.4h.7c.5,0,.9-.1,1.2-.4.2-.3.4-.7.4-1.3ZM53.9,26.2c0-.6-.1-1.1-.3-1.4-.2-.3-.6-.5-1.2-.5h-.8v4.1h.8c.3,0,.6,0,.8-.2.2-.1.4-.3.5-.5.1-.2.2-.4.2-.7,0-.3,0-.6,0-.9Z"/>
  <path class="st2" d="M66.4,30.4l-.5-2.8h-2.5c0,.5-.2.9-.3,1.4,0,.5-.2.9-.2,1.4h-2.1c.4-2.2.9-4.4,1.3-6.6.4-2.2.9-4.4,1.3-6.6h2.3l2.7,13.3h-2.1ZM64.6,20.2c-.1.9-.3,1.8-.4,2.7-.1.9-.3,1.8-.5,2.8h1.8l-.9-5.5h0Z"/>
  <path class="st2" d="M79.9,17.1v11.4h.9v4.4h-1.7v-2.5h-5.6v-13.3h2.1v11.4h2.3v-11.4h2.1Z"/>
  <path class="st2" d="M90.6,22.1l-2.8,8.3h-2v-13.3h2v8.4h0l2.8-8.4h2v13.3h-2v-8.3h0Z"/>
  <path class="st2" d="M97.9,30.4l.8-4.2c0-.4.2-.9.4-1.2.2-.4.5-.6.8-.9-.6-.3-1-.6-1.3-1.2-.2-.5-.3-1.1-.3-1.9,0-1.3.3-2.3,1-3,.6-.7,1.5-1,2.6-1h3.1v13.3h-2.1v-5.7h-.5c-.4,0-.7.1-1,.4-.3.3-.5.8-.6,1.5l-.6,3.8h-2.1ZM102,19c-.6,0-1.1.2-1.3.6-.3.4-.4.9-.4,1.5s.2,1.1.5,1.3c.3.2.7.4,1.2.4h.8v-3.8h-.8Z"/>
  <path class="st2" d="M114.5,27.5l-1-2.5-.8-2.3h0v7.7h-2.1v-13.3h2l1.5,3.8,1.1,2.9h0l1.1-3,1.4-3.7h2v13.3h-2.1v-7.7h0l-.8,2.4-.9,2.4h-1.2Z"/>
  <path class="st3" d="M12.2,34.4H.3c15.8,16.7,38.5,23.1,57.5,23.9.9,0,1.8,0,2.6,0,.3,0,.5,0,.8,0,.8,0,1.6,0,2.4,0,12.4-.2,26.1-2.9,38-9.2,6.8-3.6,13.1-8.5,18.2-14.8h0c-28.9,28.2-86.6,23.4-107.6,0Z"/>
  <path class="st1" d="M119.8,34.4s0,0,0,0c-.5.3-.9.6-1.3.9-.2.2-.4.3-.7.4-.2.1-.4.2-.5.3-.6.4-1.2.8-1.8,1.1-.2.1-.5.3-.7.4-.6.4-1.2.7-1.9,1.1-.2.1-.5.2-.7.4-.6.3-1.3.7-1.9,1-.2.1-.5.2-.7.3-.7.3-1.3.6-2,.9-.2.1-.5.2-.7.3-.7.3-1.3.6-2,.9-.2,0-.5.2-.7.3-.7.3-1.3.5-2,.8-.2,0-.5.2-.7.3-.7.3-1.4.5-2,.7-.2,0-.5.2-.7.2-.7.2-1.4.4-2,.7-.2,0-.5.1-.7.2-.7.2-1.3.4-2,.6-.3,0-.5.1-.8.2-.7.2-1.3.3-2,.5-.3,0-.6.1-.9.2-.6.1-1.3.3-1.9.4-.3,0-.6.1-.9.2-.6.1-1.2.2-1.9.3-.3,0-.7.1-1,.2-.6,0-1.2.2-1.8.3-.4,0-.8,0-1.2.1-.5,0-1.1.1-1.6.2-.5,0-1,0-1.5.1-.4,0-.9,0-1.3.1-.9,0-1.9.1-2.8.2h0c-.5,0-1.1,0-1.6,0,0,0,0,0,0,0-.5,0-1.1,0-1.6,0,0,0,0,0,0,0-.5,0-1,0-1.6,0,0,0,0,0,0,0-.5,0-1,0-1.5,0,0,0,0,0-.1,0-.5,0-1,0-1.5,0,0,0,0,0-.1,0-.5,0-1,0-1.5,0,0,0-.1,0-.2,0-.5,0-.9,0-1.4,0,0,0-.1,0-.2,0-.5,0-.9,0-1.4-.1,0,0-.2,0-.2,0-.4,0-.9,0-1.3-.1,0,0-.2,0-.3,0-.4,0-.9,0-1.3-.2,0,0-.2,0-.3,0-.4,0-.8-.1-1.2-.2-.1,0-.2,0-.3,0-.4,0-.8-.1-1.2-.2-.1,0-.2,0-.3,0-.4,0-.8-.1-1.2-.2-.1,0-.2,0-.4,0-.4,0-.8-.1-1.1-.2-.1,0-.3,0-.4,0-.4,0-.7-.2-1.1-.2-.1,0-.3,0-.4,0-.3,0-.7-.2-1-.2-.1,0-.3,0-.4-.1-.3,0-.7-.2-1-.3-.2,0-.3,0-.5-.1-.3,0-.6-.2-.9-.3-.2,0-.3,0-.5-.1-.3,0-.6-.2-.9-.3-.2,0-.3-.1-.5-.2-.3,0-.6-.2-.9-.3-.2,0-.3-.1-.5-.2-.3,0-.6-.2-.8-.3-.2,0-.4-.1-.5-.2-.3,0-.5-.2-.8-.3-.2,0-.4-.1-.6-.2-.3,0-.5-.2-.8-.3-.2,0-.4-.2-.6-.2-.2,0-.5-.2-.7-.3-.2,0-.4-.2-.6-.3-.2-.1-.5-.2-.7-.3-.2,0-.4-.2-.6-.3-.2-.1-.4-.2-.7-.3-.2,0-.4-.2-.6-.3-.2-.1-.4-.2-.6-.3-.2-.1-.4-.2-.6-.3-.2-.1-.4-.2-.6-.3-.2-.1-.4-.2-.6-.3-.2-.1-.4-.2-.6-.3-.2-.1-.4-.2-.6-.4-.2-.1-.4-.2-.5-.3-.2-.1-.4-.2-.6-.4-.2-.1-.3-.2-.5-.3-.2-.1-.4-.3-.6-.4-.2-.1-.3-.2-.5-.3-.2-.1-.4-.3-.6-.4-.1-.1-.3-.2-.4-.3-.2-.1-.4-.3-.6-.4-.1-.1-.3-.2-.4-.3-.2-.2-.4-.3-.6-.5-.1-.1-.3-.2-.4-.3-.2-.2-.4-.3-.6-.5-.1,0-.2-.2-.3-.3-.3-.3-.6-.5-.9-.8h-12.3c21,23.4,78.7,28.2,107.6,0Z"/>
  <path class="st0" d="M73.3,45.4c-.2,0-.5,0-.7,0s-.2,0-.3,0c-.3,0-.7,0-1,0-.2,0-.4,0-.5,0-.3,0-.6,0-1,0-.2,0-.4,0-.5,0-.3,0-.6,0-.9,0-.2,0-.4,0-.5,0-.3,0-.6,0-.9,0-.2,0-.4,0-.5,0-.3,0-.6,0-.9,0-.2,0-.4,0-.5,0-.3,0-.6,0-.9,0-.2,0-.4,0-.5,0-.3,0-.6,0-.8,0-.2,0-.4,0-.6,0-.3,0-.5,0-.8-.1-.2,0-.4,0-.6,0-.3,0-.5,0-.8-.1-.2,0-.4,0-.6,0-.2,0-.5,0-.7-.1-.2,0-.4,0-.6-.1-.2,0-.5,0-.7-.1-.2,0-.4,0-.6-.1-.2,0-.5,0-.7-.1-.2,0-.4,0-.6-.1-.2,0-.4-.1-.6-.2-.2,0-.4,0-.6-.1-.2,0-.4-.1-.6-.2-.2,0-.4-.1-.6-.2-.2,0-.4-.1-.6-.2-.2,0-.4-.1-.6-.2-.2,0-.4-.1-.6-.2-.2,0-.4-.1-.6-.2-.2,0-.4-.1-.5-.2-.2,0-.4-.1-.6-.2-.2,0-.3-.1-.5-.2-.2,0-.4-.1-.6-.2-.2,0-.3-.1-.5-.2-.2,0-.4-.2-.6-.2-.2,0-.3-.1-.5-.2-.2,0-.4-.2-.6-.2-.1,0-.3-.1-.4-.2-.2,0-.4-.2-.6-.3-.1,0-.3-.1-.4-.2-.2,0-.4-.2-.6-.3-.1,0-.3-.1-.4-.2-.2,0-.4-.2-.6-.3-.1,0-.2-.1-.4-.2-.2-.1-.4-.2-.5-.3-.1,0-.2-.1-.4-.2-.2-.1-.4-.2-.5-.3-.1,0-.2-.1-.3-.2-.2-.1-.3-.2-.5-.3-.1,0-.2-.1-.3-.2-.2-.1-.3-.2-.5-.4,0,0-.2-.1-.3-.2-.2-.1-.3-.2-.5-.4,0,0-.2-.1-.3-.2-.2-.1-.3-.3-.5-.4,0,0-.2-.1-.2-.2-.2-.2-.4-.3-.5-.5,0,0-.1,0-.2-.1-.2-.2-.4-.4-.7-.6h-12.6c.3.3.6.6.9.8.1,0,.2.2.3.3.2.2.4.3.6.5.1.1.3.2.4.3.2.2.4.3.6.5.1.1.3.2.4.3.2.1.4.3.6.4.1.1.3.2.4.3.2.1.4.3.6.4.2.1.3.2.5.3.2.1.4.3.6.4.2.1.3.2.5.3.2.1.4.2.6.4.2.1.4.2.5.3.2.1.4.2.6.4.2.1.4.2.6.3.2.1.4.2.6.3.2.1.4.2.6.3.2.1.4.2.6.3.2.1.4.2.6.3.2,0,.4.2.6.3.2.1.4.2.7.3.2,0,.4.2.6.3.2.1.5.2.7.3.2,0,.4.2.6.3.2.1.5.2.7.3.2,0,.4.2.6.2.2.1.5.2.8.3.2,0,.4.1.6.2.3,0,.5.2.8.3.2,0,.4.1.5.2.3,0,.6.2.8.3.2,0,.3.1.5.2.3,0,.6.2.9.3.2,0,.3.1.5.2.3,0,.6.2.9.3.2,0,.3.1.5.1.3,0,.6.2.9.3.2,0,.3,0,.5.1.3,0,.7.2,1,.3.1,0,.3,0,.4.1.3,0,.7.2,1,.2.1,0,.3,0,.4,0,.4,0,.7.2,1.1.2.1,0,.3,0,.4,0,.4,0,.7.1,1.1.2.1,0,.2,0,.4,0,.4,0,.8.1,1.2.2.1,0,.2,0,.3,0,.4,0,.8.1,1.2.2.1,0,.2,0,.3,0,.4,0,.8.1,1.2.2,0,0,.2,0,.3,0,.4,0,.9.1,1.3.2,0,0,.2,0,.3,0,.4,0,.9,0,1.3.1,0,0,.2,0,.2,0,.5,0,.9,0,1.4.1,0,0,.1,0,.2,0,.5,0,.9,0,1.4,0,0,0,.1,0,.2,0,.5,0,1,0,1.5,0,0,0,0,0,.1,0,.5,0,1,0,1.5,0,0,0,0,0,.1,0,.5,0,1,0,1.5,0,0,0,0,0,0,0,.5,0,1,0,1.6,0,0,0,0,0,0,0,.5,0,1.1,0,1.6,0,0,0,0,0,0,0,.5,0,1.1,0,1.6,0h0c.9,0,1.9-.1,2.8-.2.4,0,.9,0,1.3-.1.5,0,1,0,1.5-.1.5,0,1.1-.1,1.6-.2.4,0,.8,0,1.2-.1.6,0,1.2-.2,1.8-.3.3,0,.7-.1,1-.2.6-.1,1.2-.2,1.9-.3.3,0,.6-.1.9-.2.6-.1,1.3-.3,1.9-.4.3,0,.6-.1.9-.2.7-.2,1.3-.3,2-.5.3,0,.5-.1.8-.2.7-.2,1.3-.4,2-.6.2,0,.5-.1.7-.2.7-.2,1.4-.4,2-.7.2,0,.5-.2.7-.2.7-.2,1.4-.5,2-.7.2,0,.5-.2.7-.3.7-.3,1.4-.5,2-.8.2,0,.5-.2.7-.3.7-.3,1.3-.6,2-.9.2-.1.5-.2.7-.3.7-.3,1.3-.6,2-.9.2-.1.5-.2.7-.3.6-.3,1.3-.7,1.9-1,.2-.1.5-.2.7-.4.6-.3,1.2-.7,1.9-1.1.2-.1.5-.3.7-.4.6-.4,1.2-.7,1.8-1.1.4-.3.8-.5,1.2-.8.4-.3.8-.6,1.3-.9,0,0,0,0,0,0,0,0,0,0,0,0-2.3,1.1-4.6,2-6.9,2.9-14.3,5.5-27.8,8-39.5,8Z"/>
  <path class="st4" d="M120,34.3s0,0,0,0c0,0,0,0,0,0,0,0-.1,0-.2,0-2.3,1-4.6,2-6.9,2.9-13.3,5.2-26.9,7.9-39.4,8-.2,0-.5,0-.7,0-15.4,0-28.3-4-35.5-10.9,0,0-.1,0-.2,0H.3c0,0-.2,0-.2.1,0,0,0,.2,0,.3,7.4,7.8,16.7,13.8,27.6,18,9.2,3.5,19.6,5.6,30,6,1.4,0,2.9,0,4.4,0s.9,0,1.4,0c6.5,0,13-.9,19.2-2.3,6.8-1.6,13.2-3.9,18.9-7,7.3-3.9,13.4-8.9,18.2-14.9,0,0,0,0,0,0,0,0,0,0,0,0h0s0,0,0,0h0s0,0,0-.1c0,0,0,0,0,0ZM59.6,44.4c.2,0,.3,0,.5,0,.3,0,.5,0,.8.1h0c.2,0,.4,0,.5,0,.3,0,.5,0,.8.1.2,0,.4,0,.6,0,.3,0,.6,0,.8,0,.2,0,.4,0,.5,0,.3,0,.6,0,.9,0h.1c.1,0,.3,0,.4,0,.3,0,.6,0,.9,0,.2,0,.4,0,.5,0,.3,0,.6,0,.9,0,.2,0,.4,0,.5,0,.3,0,.6,0,.9,0h.1c.1,0,.3,0,.4,0,.3,0,.6,0,1,0,.2,0,.4,0,.5,0,.3,0,.7,0,1,0h.2c.2,0,.5,0,.7,0,12.6,0,26.2-2.9,39.5-8,2.2-.9,4.4-1.8,6.6-2.8-4.7,5.8-10.8,10.7-18,14.5-10.8,5.7-24.3,9-38,9.2-.7,0-1.3,0-2,0h-.3c-.3,0-.5,0-.8,0-1,0-1.8,0-2.6,0-13.5-.6-39-4.5-57.3-23.8h36.5c.2.2.4.4.6.6,0,0,0,0,0,0,0,0,0,0,0,0,.2.2.4.3.5.5,0,0,0,0,.1.1h.2c.1.2.3.4.4.5,0,0,.1,0,.2.1h.2c.1.2.3.3.4.5,0,0,.1,0,.2.1h.2c.1.2.3.3.4.4,0,0,.1,0,.2.1h.2c.2.2.3.3.5.4,0,0,.1,0,.2.1h.2c.2.2.3.3.5.4,0,0,.2,0,.2.1h.2c.1.2.3.3.4.4,0,0,.2,0,.2.1h.3c.1.2.3.3.4.4,0,0,.2,0,.2.1h.3c.1.2.3.3.4.4,0,0,.2,0,.3.1h.2c.2.2.3.3.5.3,0,0,.2,0,.3.1h.3c.1.2.3.3.4.3.1,0,.2,0,.3.1h.3c.1.2.3.2.4.3.1,0,.2,0,.3.1h.2c.2.2.3.2.5.3.1,0,.2,0,.4.1h.2c.2.1.4.2.5.3.1,0,.3,0,.4.1h.3c.2.1.3.2.5.2.1,0,.3,0,.4.1h.3c.1.1.3.2.4.2.2,0,.3,0,.5.1h.1c.2,0,.4.1.6.2.2,0,.4,0,.5.1h.2c.2,0,.3.1.5.2.2,0,.4.1.6.2h.1c.2,0,.3,0,.5.1.2,0,.4,0,.7.1h0c.2,0,.3,0,.5.1.2,0,.5,0,.7.1h.1c.1,0,.3,0,.5.1.2,0,.5,0,.7.1h.1Z"/>
</svg>