<svg width="77" height="77" viewBox="0 0 77 77" fill="none" xmlns="http://www.w3.org/2000/svg">
<path d="M32.3267 51.1824L33.9252 49.5839L27.2121 42.8708L25.6136 44.4693L24.8147 43.6704C23.5357 42.232 22.2574 41.4325 20.9783 41.5925C20.0193 41.5925 19.2198 42.232 18.581 43.191C17.622 44.7895 18.1015 46.5479 18.2615 47.6662C18.2615 47.9857 18.4215 48.1457 18.4215 48.4651C18.4215 48.9446 18.4215 49.5841 17.3026 49.7441C15.7041 50.2236 13.6262 50.7031 11.5483 51.822C8.6714 53.4205 6.7529 54.8589 5.63395 56.2972C-0.280959 63.9699 0.0391873 70.5232 0.0391873 70.8432C0.0391873 71.3226 0.199201 71.6421 0.518664 71.8021L4.83447 76.2773C5.15392 76.5968 5.47396 76.7568 5.79341 76.7568H6.27289C7.87139 76.7568 13.6256 76.4373 20.3388 71.1626C21.7772 70.0437 23.2157 68.1258 24.814 65.2483C25.933 63.3304 26.5725 61.2525 26.8919 59.494C27.2114 58.375 27.6909 58.375 28.1709 58.375C28.3309 58.375 28.6504 58.535 28.9698 58.535C29.6093 58.6951 30.2488 58.8545 31.0477 58.8545C31.8467 58.8545 32.6463 58.6945 33.4451 58.215C34.404 57.5755 35.0436 56.7766 35.2036 55.8177C35.3636 54.5387 34.7241 53.2604 33.2857 52.1413L32.3267 51.1824Z" fill="#E20912"/>
<path d="M65.0937 18.4154L69.4095 16.3375C69.5695 16.1774 69.8889 16.018 70.049 15.858L76.6021 7.06696C77.0816 6.42747 77.0816 5.46846 76.4421 4.98905L71.9669 0.51384C71.4874 0.0343638 70.5284 -0.12565 69.889 0.353827L61.0979 6.90695C60.9379 7.06696 60.7785 7.22639 60.6185 7.54644L58.5405 11.8622L42.7158 27.2076L49.4289 33.9207L65.0937 18.4154Z" fill="#E20912"/>
<path d="M72.1261 50.0648C68.1303 46.069 62.3761 44.6301 56.9411 46.069L30.8871 19.8548C31.2066 18.4163 31.3666 17.1373 31.3666 15.699C31.3666 11.7031 29.7681 7.70674 26.7314 4.66988C22.5756 0.35407 16.3419 -1.08443 10.5876 0.833472C10.2681 0.993485 9.78863 1.47296 9.62862 2.11245C9.62862 2.59193 9.78863 3.07139 10.1081 3.55087L17.9403 11.3831C19.6988 13.1416 19.6988 16.1784 17.9403 17.9362C16.1818 19.6947 13.1449 19.6947 11.3872 17.9362L3.55497 10.104C3.0755 9.78454 2.59604 9.62451 1.95647 9.78454C1.47699 9.78454 0.997532 10.264 0.837504 10.7435C-1.0804 16.3376 0.358028 22.5714 4.51391 26.727C7.39077 29.7639 11.5466 31.3622 15.7024 31.3622C16.9814 31.3622 18.4198 31.2022 19.6982 30.8828L45.9125 57.097C44.474 62.5318 46.0725 68.2855 49.9083 72.282C52.9451 75.3189 56.7815 76.7573 60.9373 76.7573C62.6958 76.7573 64.2942 76.4378 66.0521 75.9583C66.5316 75.7983 67.011 75.3188 67.1711 74.8394C67.3311 74.3599 67.1711 73.7204 66.6916 73.4009L58.86 65.5687C58.061 64.7698 57.4216 63.4908 57.4216 62.2119C57.4216 60.9329 57.901 59.8146 58.86 58.855C59.8189 57.8961 60.9379 57.4166 62.2168 57.4166C63.4958 57.4166 64.6141 57.8961 65.5737 58.855L73.4059 66.6872C73.8854 67.0067 74.3648 67.1667 74.8443 67.1667C75.3238 67.0067 75.8033 66.6872 75.9633 66.2078C76.4428 64.6093 76.7622 62.8509 76.7622 61.093C76.7616 56.9372 75.1633 52.9414 72.1264 50.0645L72.1261 50.0648Z" fill="#1E1E1E"/>
</svg>
