<svg width="75" height="75" viewBox="0 0 75 75" fill="none" xmlns="http://www.w3.org/2000/svg">
<path d="M37.5 0C16.8236 0 0 16.8236 0 37.5C0 58.1764 16.8236 75 37.5 75C58.1764 75 75 58.1764 75 37.5C75 16.8236 58.1764 0 37.5 0ZM55.8103 67.2148L52.8236 64.1246C52.333 63.6074 51.5039 63.5941 51 64.098C50.4828 64.5887 50.4695 65.4177 50.9734 65.9217L53.4946 68.5212C48.9813 70.8621 43.899 72.232 38.5212 72.3872L37.4734 68.2227C37.3049 67.5236 36.5941 67.1113 35.9084 67.2783C35.2094 67.4468 34.797 68.1576 34.964 68.8433L35.8433 72.3739C30.464 72.1153 25.4084 70.6404 20.9335 68.2227L22.1099 64.0847C22.3034 63.399 21.903 62.6882 21.2172 62.4813C20.5315 62.2877 19.8207 62.6882 19.6138 63.3739L18.6207 66.8527C14.2374 64.0212 10.5266 60.2586 7.78522 55.8089L10.8754 52.8222C11.3926 52.3315 11.4059 51.5025 10.902 50.9985C10.4113 50.4813 9.58227 50.468 9.07833 50.9719L6.47882 53.4931C4.13793 48.9798 2.76798 43.8975 2.61281 38.5197L6.77734 37.4719C7.47635 37.3034 7.88867 36.5926 7.72167 35.9069C7.5532 35.2079 6.84236 34.7956 6.15665 34.9626L2.63941 35.8419C2.89803 30.4626 4.37291 25.4069 6.79064 20.932L10.9286 22.1084C11.0453 22.1468 11.1606 22.1601 11.2906 22.1601C11.8596 22.1601 12.3768 21.7847 12.532 21.2158C12.7256 20.53 12.3251 19.8192 11.6394 19.6123L8.16059 18.6163C10.9921 14.233 14.7547 10.5222 19.2044 7.78079L22.1911 10.8709C22.4498 11.1296 22.7852 11.2581 23.1222 11.2581C23.4576 11.2581 23.768 11.1414 24.0266 10.8961C24.5438 10.4054 24.5571 9.57635 24.0532 9.07241L21.532 6.47291C26.0438 4.13793 31.1261 2.76798 36.5039 2.61133L37.5517 6.77586C37.6936 7.35813 38.2241 7.75862 38.8064 7.75862C38.9099 7.75862 39.0133 7.75862 39.1167 7.7202C39.8158 7.55172 40.2281 6.84089 40.0611 6.15517L39.1818 2.63793C44.5611 2.89655 49.6167 4.37143 54.0916 6.78916L52.9153 10.9271C52.7217 11.6128 53.1222 12.3236 53.8079 12.5305C53.9246 12.569 54.0399 12.5823 54.1699 12.5823C54.7389 12.5823 55.2562 12.2069 55.4113 11.6379L56.4074 8.15911C60.7906 10.9906 64.5015 14.7532 67.2429 19.203L64.1527 22.1897C63.6355 22.6803 63.6222 23.5094 64.1261 24.0133C64.3847 24.2719 64.7202 24.4005 65.0571 24.4005C65.3926 24.4005 65.7044 24.2837 65.9616 24.0384L68.5611 21.5172C70.902 26.0305 72.2719 31.1128 72.4271 36.4906L68.2626 37.5384C67.5635 37.7069 67.1512 38.4177 67.3182 39.1034C67.4601 39.6975 67.9906 40.0862 68.5729 40.0862C68.6764 40.0862 68.7798 40.0862 68.8832 40.0478L72.4005 39.1685C72.1419 44.5478 70.667 49.6034 68.2493 54.0783L64.1113 52.902C63.4256 52.7084 62.7148 53.1089 62.5079 53.7946C62.3143 54.4803 62.7148 55.1911 63.4005 55.398L66.8793 56.3941C64.0478 60.7773 60.2852 64.4882 55.8355 67.2296L55.8103 67.2148Z" fill="#E20912"/>
<path d="M37.5001 56.4709C27.04 56.4709 18.5292 47.9601 18.5292 37.5C18.5292 27.0399 27.04 18.5291 37.5001 18.5291C47.9602 18.5291 56.471 27.0399 56.471 37.5C56.471 47.9601 47.9602 56.4709 37.5001 56.4709ZM37.5001 21.3827C28.6139 21.3827 21.3829 28.6123 21.3829 37.5C21.3829 46.3877 28.6124 53.6172 37.5001 53.6172C46.3878 53.6172 53.6174 46.3877 53.6174 37.5C53.6174 28.6123 46.3863 21.3827 37.5001 21.3827Z" fill="white"/>
<path d="M37.5 44.6349C33.566 44.6349 30.365 41.434 30.365 37.5C30.365 33.566 33.566 30.365 37.5 30.365C41.434 30.365 44.6349 33.566 44.6349 37.5C44.6349 41.434 41.434 44.6349 37.5 44.6349ZM37.5 33.2187C35.1399 33.2187 33.2202 35.1384 33.2202 37.5C33.2202 39.8615 35.1399 41.7812 37.5 41.7812C39.8601 41.7812 41.7812 39.8615 41.7812 37.5C41.7812 35.1384 39.8601 33.2187 37.5 33.2187Z" fill="white"/>
</svg>
