<svg width="75" height="75" viewBox="0 0 75 75" fill="none" xmlns="http://www.w3.org/2000/svg">
<path d="M60.4802 28.1437C60.1601 28.1437 59.84 28.0219 59.5962 27.7781L47.2212 15.4031C46.7351 14.917 46.7324 14.1281 47.2172 13.6393L60.361 0.370982C60.5953 0.133929 60.9141 0.00133929 61.2462 0C61.2476 0 61.2489 0 61.2489 0C61.5811 0 61.8985 0.13125 62.1328 0.365625L74.6324 12.8652C74.8681 13.1009 74.9994 13.4196 74.998 13.7518C74.9967 14.0839 74.8641 14.4027 74.6284 14.6371L61.3601 27.7808C61.1163 28.0232 60.7989 28.1437 60.4802 28.1437ZM49.869 14.5138L60.4842 25.1304L71.9766 13.7451L61.2529 3.02143L49.869 14.5138Z" fill="white"/>
<path d="M13.7505 75C13.4183 75 13.1009 74.8687 12.8665 74.6343L0.365635 62.1334C0.129921 61.8977 -0.00132914 61.579 1.01497e-05 61.2468C0.00134944 60.9147 0.133939 60.5959 0.369653 60.3616L13.638 47.2178C14.1268 46.7343 14.9156 46.7357 15.4018 47.2218L27.7768 59.5968C28.263 60.083 28.2656 60.8718 27.7808 61.3607L14.6371 74.629C14.4027 74.8647 14.0839 74.9986 13.7518 74.9986C13.7518 75 13.7505 75 13.7505 75ZM3.02144 61.2549L13.7451 71.9785L25.129 60.4861L14.5139 49.8696L3.02144 61.2549Z" fill="white"/>
<path d="M29.9987 17.5005H23.7482C23.7469 17.5005 23.7456 17.5005 23.7429 17.5005C23.7416 17.5005 23.7402 17.5005 23.7389 17.5005C23.7375 17.5005 23.7349 17.5005 23.7335 17.5005C23.4255 17.4965 23.1456 17.3827 22.9286 17.1938C22.8657 17.1403 22.8094 17.0787 22.7572 17.013C22.7572 17.013 22.7572 17.013 22.7572 17.0117C22.6125 16.8229 22.5201 16.5925 22.5014 16.3407C22.4987 16.3072 22.4974 16.2737 22.4987 16.2403V9.99919C22.4987 9.30946 23.0585 8.74964 23.7482 8.74964C24.438 8.74964 24.9978 9.30946 24.9978 9.99919V13.2322L32.8648 5.3666C33.3523 4.8791 34.1438 4.8791 34.6326 5.3666C35.1201 5.85544 35.1201 6.64562 34.6326 7.13446L26.767 15.0001H29.9987C30.6884 15.0001 31.2482 15.5599 31.2482 16.2496C31.2482 16.9394 30.6884 17.5005 29.9987 17.5005Z" fill="white"/>
<path d="M41.2478 70.0004C40.9278 70.0004 40.6077 69.8785 40.3639 69.6348C39.8764 69.1459 39.8764 68.3558 40.3639 67.8669L48.2295 60H44.9978C44.3081 60 43.7483 59.4401 43.7483 58.7504C43.7483 58.0607 44.3081 57.5009 44.9978 57.5009H51.2483C51.2496 57.5009 51.251 57.5009 51.2536 57.5009C51.255 57.5009 51.2563 57.5009 51.2577 57.5009C51.259 57.5009 51.2617 57.5009 51.263 57.5009C51.5711 57.5049 51.851 57.6187 52.0679 57.8076C52.1309 57.8611 52.1871 57.9227 52.2394 57.9884C52.2394 57.9884 52.2394 57.9884 52.2394 57.9897C52.384 58.1772 52.4764 58.4076 52.4952 58.658C52.4952 58.658 52.4952 58.658 52.4952 58.6593C52.4978 58.6928 52.4992 58.7276 52.4978 58.7611V65.0009C52.4978 65.6906 51.938 66.2504 51.2483 66.2504C50.5586 66.2504 49.9987 65.6906 49.9987 65.0009V61.7678L42.1318 69.6334C41.888 69.8785 41.5679 70.0004 41.2478 70.0004Z" fill="white"/>
<path d="M41.9189 27.778C41.4314 27.2892 40.6399 27.2892 40.1511 27.778L36.614 31.3137C36.3797 31.5481 36.2484 31.8655 36.2484 32.1976C36.2484 32.5298 36.3797 32.8472 36.614 33.0816L41.9176 38.3851C42.1614 38.6289 42.4814 38.7508 42.8015 38.7508C43.1216 38.7508 43.4417 38.6289 43.6855 38.3851L47.2198 34.8508C47.7073 34.3633 47.7073 33.5718 47.2198 33.0829L41.9189 27.778ZM42.8015 35.732L39.2658 32.1963L41.0337 30.4285L44.5681 33.9642L42.8015 35.732Z" fill="#E20912"/>
<path d="M25.1229 32.1963C24.8885 31.9619 24.5711 31.8307 24.2389 31.8307C23.9068 31.8307 23.5894 31.9619 23.355 32.1963L10.9813 44.5713C10.4938 45.0602 10.4938 45.8503 10.9813 46.3392L28.6586 64.0164C28.893 64.2508 29.2104 64.382 29.5425 64.382C29.8746 64.382 30.1921 64.2508 30.4264 64.0164L42.8001 51.6414C43.2876 51.1526 43.2876 50.3624 42.8001 49.8735L25.1229 32.1963ZM29.5425 61.3646L13.6331 45.4552L24.2389 34.8481L40.1483 50.7575L29.5425 61.3646Z" fill="#E20912"/>
<path d="M18.9367 47.2232L27.776 56.0625C28.0104 56.2968 28.3278 56.4281 28.6599 56.4281C28.9921 56.4281 29.3095 56.2968 29.5438 56.0625L34.8474 50.7589C35.3349 50.2714 35.3349 49.4799 34.8474 48.991L26.0081 40.1518C25.7738 39.9174 25.4563 39.7861 25.1242 39.7861C24.7921 39.7861 24.4746 39.9174 24.2403 40.1518L18.9367 45.4553C18.4479 45.9428 18.4479 46.7343 18.9367 47.2232ZM25.1242 42.8022L32.1956 49.8736L28.6599 53.4093L21.5885 46.3393L25.1242 42.8022Z" fill="#E20912"/>
<path d="M63.1318 27.778L47.2211 11.8673C46.0412 10.6861 44.4715 10.0365 42.8014 10.0365C41.1314 10.0365 39.5617 10.6874 38.3818 11.8673L35.73 14.5177C35.7287 14.5191 35.7287 14.5204 35.7273 14.5204C35.6389 14.6088 35.5653 14.7093 35.509 14.8177C35.5077 14.8204 35.5064 14.8244 35.505 14.8271C35.4889 14.8593 35.4729 14.8914 35.4595 14.9249C35.4568 14.9316 35.4541 14.9369 35.4528 14.9436C35.4407 14.9744 35.43 15.0052 35.4206 15.0374C35.4193 15.0441 35.4166 15.0494 35.4153 15.0561C35.4059 15.0896 35.3979 15.1231 35.3912 15.1566C35.3898 15.1606 35.3898 15.1646 35.3885 15.1686C35.3818 15.2061 35.3764 15.2436 35.3724 15.2811C35.3497 15.5088 35.3885 15.7445 35.497 15.9615L37.2648 19.4972C38.0805 21.1298 37.7617 23.0945 36.472 24.3843L31.3117 29.5445C30.6032 30.253 30.2135 31.1945 30.2135 32.1963C30.2135 33.1981 30.6032 34.1396 31.3117 34.8481L40.151 43.6874C40.8822 44.4186 41.8425 44.7843 42.8028 44.7843C43.7631 44.7843 44.7233 44.4186 45.4546 43.6874L50.6148 38.5285C51.9072 37.2374 53.872 36.9186 55.5032 37.7356L59.0376 39.5035C59.0604 39.5142 59.0831 39.5236 59.1046 39.5329C59.1099 39.5356 59.1153 39.5383 59.1206 39.5396C59.1568 39.5544 59.193 39.5677 59.2291 39.5785C59.2305 39.5785 59.2305 39.5785 59.2318 39.5798C59.3497 39.616 59.4702 39.6334 59.5907 39.6334C59.5921 39.6334 59.5934 39.6334 59.5948 39.6334H59.5961C59.6014 39.6334 59.6055 39.6334 59.6108 39.632C59.643 39.632 59.6751 39.6307 59.7073 39.6267C59.718 39.6253 59.7287 39.624 59.7394 39.6227C59.7675 39.62 59.7943 39.616 59.8224 39.6106C59.8345 39.6079 59.8479 39.6052 59.8599 39.6026C59.8854 39.5972 59.9108 39.5905 59.9363 39.5838C59.9483 39.5798 59.9617 39.5771 59.9738 39.5731C59.9992 39.5651 60.0247 39.5557 60.0501 39.5463C60.0608 39.5423 60.0729 39.5383 60.0836 39.5329C60.1117 39.5209 60.1385 39.5075 60.1653 39.4941C60.1733 39.4901 60.18 39.4874 60.1881 39.4834C60.2564 39.4459 60.3233 39.403 60.3849 39.3521C60.393 39.3454 60.401 39.3374 60.409 39.3307C60.4305 39.3119 60.4519 39.2932 60.472 39.2744C60.4747 39.2718 60.4773 39.2691 60.4814 39.2664L63.1345 36.6146C65.568 34.1798 65.568 30.2142 63.1318 27.778ZM48.8443 36.7593L43.684 41.9182C43.1965 42.4057 42.4037 42.4057 41.9162 41.9182L33.0769 33.0789C32.5894 32.5914 32.5894 31.7986 33.0769 31.3111L38.2372 26.1508C39.9006 24.4874 40.5488 22.1195 40.0439 19.9003C40.0532 19.907 40.0639 19.9137 40.0733 19.9204C40.1778 19.9914 40.2836 20.0624 40.3907 20.1334C40.447 20.1709 40.5032 20.2084 40.5595 20.2459C40.6666 20.3155 40.7738 20.3852 40.8823 20.4548C40.9398 20.4923 40.9974 20.5285 41.0564 20.566C41.1662 20.6356 41.276 20.7039 41.3872 20.7722C41.4447 20.8084 41.5037 20.8445 41.5626 20.8794C41.6751 20.9477 41.7889 21.016 41.9028 21.0843C41.9604 21.1191 42.0193 21.1526 42.0782 21.1874C42.1947 21.2557 42.3126 21.324 42.4318 21.3923C42.4867 21.4244 42.543 21.4552 42.5992 21.4874C42.7224 21.557 42.8456 21.6267 42.9715 21.6963C43.0197 21.7231 43.0693 21.7486 43.1175 21.7753C43.4282 21.9441 43.743 22.1128 44.0644 22.2776C45.6407 23.0838 47.3898 24.4097 48.9889 26.0088C49.5662 26.5847 50.1059 27.1807 50.6001 27.782C51.4747 28.8468 52.2032 29.9249 52.7202 30.9334C52.8193 31.1262 52.9184 31.3177 53.0189 31.5066C53.051 31.5655 53.0818 31.6244 53.1139 31.6834C53.1822 31.8106 53.2506 31.9365 53.3189 32.0611C53.3604 32.1374 53.4032 32.2124 53.4461 32.2874C53.505 32.3932 53.5653 32.499 53.6242 32.6035C53.6711 32.6838 53.718 32.7642 53.7648 32.8445C53.8224 32.9423 53.8787 33.0401 53.9363 33.1365C53.9845 33.2182 54.034 33.2986 54.0823 33.3789C54.1398 33.4727 54.1961 33.5664 54.2537 33.6588C54.3032 33.7392 54.3528 33.8195 54.4037 33.8986C54.4613 33.9896 54.5189 34.0807 54.5778 34.1704C54.6287 34.2481 54.6782 34.3271 54.7291 34.4035C54.7894 34.4945 54.8497 34.5843 54.9099 34.674C54.9595 34.7477 55.009 34.8227 55.0599 34.8963C55.072 34.9137 55.084 34.9325 55.0961 34.9499C52.8769 34.4477 50.509 35.0959 48.8443 36.7593ZM61.3639 34.8481L59.6068 36.6052C59.5934 36.5905 59.5787 36.5758 59.5653 36.5611C59.4876 36.478 59.4113 36.3936 59.3349 36.3093C59.2961 36.2664 59.2586 36.2236 59.2197 36.1807C59.1488 36.1003 59.0778 36.02 59.0068 35.9383C58.9639 35.8887 58.9211 35.8378 58.8782 35.7883C58.8113 35.7106 58.7456 35.6329 58.68 35.5539C58.6331 35.4977 58.5863 35.4401 58.5407 35.3838C58.4791 35.3088 58.4175 35.2338 58.3572 35.1575C58.3037 35.0905 58.2514 35.0236 58.1992 34.9566C58.1456 34.8883 58.0907 34.82 58.0372 34.7503C57.9434 34.6285 57.8523 34.5066 57.7599 34.382C57.7251 34.3338 57.6889 34.2856 57.6541 34.2374C57.5724 34.1262 57.4921 34.0151 57.4117 33.9012C57.3756 33.8503 57.3394 33.7981 57.3032 33.7459C57.2349 33.6481 57.1666 33.5517 57.0997 33.4526C57.0608 33.3963 57.0233 33.3387 56.9858 33.2825C56.9215 33.1861 56.8572 33.0896 56.793 32.9932C56.7541 32.9343 56.7166 32.8753 56.6778 32.8164C56.6148 32.7186 56.5519 32.6209 56.4903 32.5218C56.4528 32.4615 56.4139 32.4012 56.3764 32.3396C56.3148 32.2392 56.2532 32.1387 56.1916 32.0369C56.1541 31.9753 56.118 31.9151 56.0818 31.8535C56.0202 31.749 55.9586 31.6445 55.897 31.5387C55.8622 31.4785 55.826 31.4182 55.7912 31.3566C55.7282 31.2468 55.6653 31.1356 55.6037 31.0244C55.5702 30.9655 55.5381 30.9066 55.5046 30.8477C55.4389 30.7285 55.3733 30.6066 55.3077 30.4847C55.2796 30.4311 55.2501 30.3789 55.222 30.3253C55.1389 30.17 55.0572 30.0133 54.9769 29.8552C54.9662 29.8352 54.9568 29.8164 54.9461 29.7963C54.3434 28.6191 53.501 27.3722 52.4965 26.1548C51.9595 25.5039 51.3769 24.8611 50.7568 24.241C48.9782 22.4624 47.0068 20.9758 45.2028 20.053C44.8318 19.8628 44.4689 19.67 44.1153 19.4744C44.1046 19.4691 44.0952 19.4637 44.0845 19.457C43.9211 19.366 43.7604 19.2749 43.601 19.1838C43.5809 19.1718 43.5608 19.1597 43.5394 19.149C43.3894 19.0633 43.2421 18.9762 43.0961 18.8878C43.072 18.8731 43.0479 18.8584 43.0238 18.845C42.8805 18.7593 42.7385 18.6722 42.5979 18.5838C42.5751 18.5691 42.551 18.5544 42.5282 18.541C42.3849 18.4512 42.2443 18.3615 42.1037 18.2704C42.0849 18.2584 42.0662 18.2463 42.0488 18.2343C41.8988 18.1365 41.7514 18.0387 41.6055 17.9396C41.5988 17.9343 41.5907 17.9302 41.584 17.9249C40.9599 17.5003 40.3653 17.0637 39.8014 16.6097C39.7867 16.5977 39.7706 16.5843 39.7559 16.5722C39.6354 16.4744 39.5162 16.3767 39.3983 16.2776C39.3702 16.2535 39.3407 16.2294 39.3126 16.2052C39.2095 16.1182 39.1064 16.0298 39.0046 15.9414C38.9684 15.9106 38.9336 15.8798 38.8988 15.8477C38.805 15.7646 38.7126 15.6829 38.6215 15.5986C38.5827 15.5624 38.5439 15.5276 38.505 15.4914C38.4689 15.4579 38.4327 15.4231 38.3965 15.3896L40.1523 13.6338C40.8608 12.9253 41.8023 12.5356 42.8041 12.5356C43.8059 12.5356 44.7474 12.9253 45.4559 13.6338L61.3639 29.5445C62.8264 31.007 62.8264 33.3869 61.3639 34.8481Z" fill="#E20912"/>
</svg>
