<svg width="75" height="75" viewBox="0 0 75 75" fill="none" xmlns="http://www.w3.org/2000/svg">
<path fill-rule="evenodd" clip-rule="evenodd" d="M28.568 54.1807C29.0743 54.6856 29.0743 55.5052 28.568 56.0088C28.0631 56.5137 27.2435 56.5137 26.7399 56.0088C26.235 55.5039 26.235 54.6856 26.7399 54.1807C27.2435 53.6758 28.0631 53.6758 28.568 54.1807Z" fill="white"/>
<path fill-rule="evenodd" clip-rule="evenodd" d="M23.995 58.7515C24.5 59.2564 24.5 60.0761 23.995 60.5796C23.4888 61.0845 22.6705 61.0845 22.1669 60.5796C21.6607 60.0747 21.6607 59.2564 22.1669 58.7515C22.6705 58.2453 23.4888 58.2453 23.995 58.7515Z" fill="white"/>
<path d="M41.3678 75C33.4459 75 25.7544 72.1902 19.7102 67.0902C13.7383 62.0518 9.68566 55.0647 8.29816 47.416C8.22182 46.9982 8.35575 46.571 8.65575 46.271L46.2602 8.66783C46.5602 8.36783 46.9874 8.2339 47.4053 8.31024C55.054 9.69774 62.041 13.7504 67.0794 19.7223C72.1807 25.7678 74.9892 33.4594 74.9892 41.3799C74.9892 50.3598 71.4924 58.8027 65.1428 65.1536C58.7919 71.5031 50.349 75 41.3678 75ZM10.97 47.6143C12.3589 54.4138 16.0366 60.6067 21.3776 65.1134C26.9571 69.821 34.0566 72.4138 41.3678 72.4138C49.658 72.4138 57.4513 69.1861 63.3133 63.3241C69.174 57.462 72.4031 49.6687 72.4031 41.3799C72.4031 34.0687 69.8102 26.9692 65.1026 21.3897C60.5959 16.0486 54.4031 12.371 47.6035 10.9821L10.97 47.6143Z" fill="white"/>
<path d="M41.369 55.6028C33.5261 55.6028 27.1444 49.2224 27.1444 41.3782C27.1444 33.534 33.5248 27.1537 41.369 27.1537C49.2132 27.1537 55.5935 33.534 55.5935 41.3782C55.5935 49.2224 49.2118 55.6028 41.369 55.6028ZM41.369 29.7412C34.9524 29.7412 29.7306 34.9617 29.7306 41.3796C29.7306 47.7961 34.9511 53.018 41.369 53.018C47.7868 53.018 53.0074 47.7974 53.0074 41.3796C53.006 34.9617 47.7855 29.7412 41.369 29.7412Z" fill="white"/>
<path d="M41.367 47.8444C37.8018 47.8444 34.9009 44.9435 34.9009 41.3783C34.9009 37.8131 37.8018 34.9122 41.367 34.9122C44.9321 34.9122 47.833 37.8131 47.833 41.3783C47.833 44.9435 44.9321 47.8444 41.367 47.8444ZM41.367 37.4997C39.2281 37.4997 37.487 39.2395 37.487 41.3796C37.487 43.5198 39.2268 45.2582 41.367 45.2582C43.5071 45.2582 45.2469 43.5185 45.2469 41.3796C45.2469 39.2408 43.5071 37.4997 41.367 37.4997Z" fill="white"/>
<path fill-rule="evenodd" clip-rule="evenodd" d="M41.3683 59.4827C42.0822 59.4827 42.6621 60.0626 42.6621 60.7764C42.6621 61.4903 42.0835 62.0702 41.3683 62.0702C40.6545 62.0702 40.0746 61.4903 40.0746 60.7764C40.0746 60.0626 40.6545 59.4827 41.3683 59.4827Z" fill="white"/>
<path fill-rule="evenodd" clip-rule="evenodd" d="M41.3683 65.9475C42.0822 65.9475 42.6621 66.5261 42.6621 67.2413C42.6621 67.9551 42.0835 68.5337 41.3683 68.5337C40.6545 68.5337 40.0746 67.9551 40.0746 67.2413C40.0746 66.5274 40.6545 65.9475 41.3683 65.9475Z" fill="white"/>
<path fill-rule="evenodd" clip-rule="evenodd" d="M41.3683 20.6892C42.0822 20.6892 42.6621 21.2678 42.6621 21.9816C42.6621 22.6955 42.0835 23.2754 41.3683 23.2754C40.6545 23.2754 40.0746 22.6968 40.0746 21.9816C40.0746 21.2691 40.6545 20.6892 41.3683 20.6892Z" fill="white"/>
<path fill-rule="evenodd" clip-rule="evenodd" d="M68.5251 41.3785C68.5251 42.0923 67.9466 42.6722 67.2327 42.6722C66.5189 42.6722 65.939 42.0936 65.939 41.3785C65.939 40.6646 66.5175 40.0847 67.2327 40.0847C67.9452 40.0861 68.5251 40.6646 68.5251 41.3785Z" fill="white"/>
<path fill-rule="evenodd" clip-rule="evenodd" d="M62.0587 41.3785C62.0587 42.0923 61.4788 42.6722 60.7649 42.6722C60.0511 42.6722 59.4712 42.0936 59.4712 41.3785C59.4712 40.6646 60.0511 40.0847 60.7649 40.0847C61.4788 40.0847 62.0587 40.6646 62.0587 41.3785Z" fill="white"/>
<path fill-rule="evenodd" clip-rule="evenodd" d="M60.5699 22.177C61.0748 22.6819 61.0748 23.5016 60.5699 24.0051C60.0636 24.5114 59.2453 24.5114 58.7417 24.0051C58.2355 23.5002 58.2355 22.6819 58.7417 22.177C59.2453 21.6721 60.0636 21.6721 60.5699 22.177Z" fill="white"/>
<path fill-rule="evenodd" clip-rule="evenodd" d="M55.9998 26.7492C56.5047 27.2541 56.5047 28.0737 55.9998 28.5773C55.4935 29.0822 54.6752 29.0822 54.1703 28.5773C53.6654 28.0724 53.6654 27.2541 54.1703 26.7492C54.6752 26.2429 55.4935 26.2429 55.9998 26.7492Z" fill="white"/>
<path fill-rule="evenodd" clip-rule="evenodd" d="M60.5699 60.5811C60.0636 61.0873 59.2453 61.0873 58.7417 60.5811C58.2355 60.0762 58.2355 59.2565 58.7417 58.753C59.2453 58.248 60.0636 58.248 60.5699 58.753C61.0748 59.2579 61.0748 60.0762 60.5699 60.5811Z" fill="white"/>
<path fill-rule="evenodd" clip-rule="evenodd" d="M55.9998 56.0088C55.4935 56.5137 54.6752 56.5137 54.1703 56.0088C53.6654 55.5026 53.6654 54.6843 54.1703 54.1793C54.6752 53.6744 55.4935 53.6744 55.9998 54.1793C56.5047 54.6843 56.5047 55.5026 55.9998 56.0088Z" fill="white"/>
<path d="M50.3183 6.43782C46.1665 2.28604 40.646 -0.00012207 34.7732 -0.00012207C28.9004 -0.00012207 23.3813 2.28604 19.2295 6.43782L6.42857 19.2401C-2.14286 27.8115 -2.14286 41.7561 6.42857 50.3276C6.67098 50.57 7.00045 50.7066 7.3433 50.7066C7.68616 50.7066 8.01562 50.57 8.25804 50.3276L50.3183 8.26729C50.8232 7.76238 50.8232 6.94273 50.3183 6.43782ZM7.37277 47.5552C6.52902 46.5909 5.79643 45.5637 5.17634 44.4883L10.1411 39.5235C10.646 39.0186 10.646 38.2003 10.1411 37.6954C9.63616 37.1905 8.81786 37.1905 8.31295 37.6954L3.97902 42.0267C3.61473 41.1186 3.32277 40.1878 3.10179 39.2436L12.8826 29.4642C13.3875 28.9593 13.3875 28.1409 12.8826 27.636C12.3777 27.1311 11.5594 27.1311 11.0545 27.636L2.62768 36.0628C2.27545 30.6789 4.15045 25.1744 8.2567 21.0682L21.0589 8.26595C24.7219 4.603 29.5929 2.5847 34.7746 2.5847C35.7013 2.5847 36.6174 2.65032 37.5201 2.77756L28.3741 11.9235C27.8692 12.4284 27.8692 13.2468 28.3741 13.7517C28.6272 14.0048 28.958 14.1307 29.2888 14.1307C29.6196 14.1307 29.9504 14.0048 30.2036 13.7517L40.5121 3.44318C41.4134 3.72041 42.292 4.06461 43.1424 4.47041L37.5187 10.0941C37.0138 10.599 37.0138 11.4173 37.5187 11.9222C37.7719 12.1753 38.1027 12.3012 38.4335 12.3012C38.7643 12.3012 39.0951 12.1753 39.3482 11.9222L45.4768 5.79363C46.1973 6.27175 46.8897 6.80077 47.5487 7.37934L7.37277 47.5552Z" fill="#E20912"/>
</svg>
