<svg width="65" height="75" viewBox="0 0 65 75" fill="none" xmlns="http://www.w3.org/2000/svg">
<path d="M28.4788 36.3827H36.1754C37.0222 36.3827 37.7079 35.697 37.7079 34.8502C37.7079 34.0034 37.0222 33.3177 36.1754 33.3177H33.8596V24.9369C33.8596 24.0901 33.1739 23.4044 32.3271 23.4044C31.4803 23.4044 30.7946 24.0901 30.7946 24.9369V33.3177H28.4788C27.632 33.3177 26.9463 34.0034 26.9463 34.8502C26.9463 35.697 27.632 36.3827 28.4788 36.3827Z" fill="#E20912"/>
<path d="M36.1754 38.6172H28.4788C27.632 38.6172 26.9463 39.3029 26.9463 40.1497C26.9463 40.9965 27.632 41.6822 28.4788 41.6822H30.7946V50.063C30.7946 50.9098 31.4803 51.5955 32.3271 51.5955C33.1739 51.5955 33.8596 50.9098 33.8596 50.063V41.6822H36.1754C37.0222 41.6822 37.7079 40.9965 37.7079 40.1497C37.7079 39.3029 37.0222 38.6172 36.1754 38.6172Z" fill="#E20912"/>
<path d="M62.069 20.6895C63.4906 20.6895 64.6552 19.525 64.6552 18.1033V2.58608C64.6552 1.16441 63.4906 -0.00012207 62.069 -0.00012207H54.3103C52.8887 -0.00012207 51.7241 1.16441 51.7241 2.58608V5.17229H47.8448C47.134 5.17229 46.5517 5.75456 46.5517 6.46539H41.3793C41.3793 5.75456 40.797 5.17229 40.0862 5.17229H24.569C23.8581 5.17229 23.2759 5.75456 23.2759 6.46539H18.1034C18.1034 5.75456 17.5212 5.17229 16.8103 5.17229H12.931V2.58608C12.931 1.16441 11.7665 -0.00012207 10.3448 -0.00012207H2.58621C1.16453 -0.00012207 0 1.16441 0 2.58608V18.1033C0 19.525 1.16453 20.6895 2.58621 20.6895H10.3448C11.7665 20.6895 12.931 19.525 12.931 18.1033V15.5171H16.8103C17.5212 15.5171 18.1034 14.9349 18.1034 14.224H24.569V19.7319C17.7281 22.7319 12.931 29.5595 12.931 37.4999C12.931 45.4403 17.7281 52.2679 24.569 55.2679V60.7757H18.1034C18.1034 60.0649 17.5212 59.4826 16.8103 59.4826H12.931V56.8964C12.931 55.4748 11.7665 54.3102 10.3448 54.3102H2.58621C1.16453 54.3102 0 55.4748 0 56.8964V72.4137C0 73.8353 1.16453 74.9999 2.58621 74.9999H10.3448C11.7665 74.9999 12.931 73.8353 12.931 72.4137V69.8275H16.8103C17.5212 69.8275 18.1034 69.2452 18.1034 68.5344H23.2759C23.2759 69.2452 23.8581 69.8275 24.569 69.8275H40.0862C40.797 69.8275 41.3793 69.2452 41.3793 68.5344H46.5517C46.5517 69.2452 47.134 69.8275 47.8448 69.8275H51.7241V72.4137C51.7241 73.8353 52.8887 74.9999 54.3103 74.9999H62.069C63.4906 74.9999 64.6552 73.8353 64.6552 72.4137V56.8964C64.6552 55.4748 63.4906 54.3102 62.069 54.3102H54.3103C52.8887 54.3102 51.7241 55.4748 51.7241 56.8964V59.4826H47.8448C47.134 59.4826 46.5517 60.0649 46.5517 60.7757H40.0862V55.2679C46.9271 52.2679 51.7241 45.4403 51.7241 37.4999C51.7241 29.5595 46.9271 22.7319 40.0862 19.7319V14.224H46.5517C46.5517 14.9349 47.134 15.5171 47.8448 15.5171H51.7241V18.1033C51.7241 19.525 52.8887 20.6895 54.3103 20.6895H62.069ZM10.3448 18.1033H2.58621V2.58608H10.3448V18.1033ZM15.5172 12.9309H12.931V7.7585H15.5172V12.9309ZM23.2759 11.6378H18.1034V9.0516H23.2759V11.6378ZM10.3448 72.4137H2.58621V56.8964H10.3448V72.4137ZM15.5172 67.2413H12.931V62.0688H15.5172V67.2413ZM23.2759 65.9482H18.1034V63.3619H23.2759V65.9482ZM54.3103 56.8964H62.069V72.4137H54.3103V56.8964ZM49.1379 62.0688H51.7241V67.2413H49.1379V62.0688ZM41.3793 63.3619H46.5517V65.9482H41.3793V63.3619ZM25.8621 7.7585H38.7931V11.6378H25.8621V7.7585ZM37.5 14.224V18.8275C35.8448 18.3752 34.1246 18.1033 32.3276 18.1033C30.5305 18.1033 28.8103 18.3619 27.1552 18.8275V14.224H37.5ZM38.7931 67.2413H25.8621V63.3619H38.7931V67.2413ZM27.1552 60.7757V56.1723C28.8103 56.6245 30.5305 56.8964 32.3276 56.8964C34.1246 56.8964 35.8448 56.6378 37.5 56.1723V60.7757H27.1552ZM49.1379 37.4999C49.1379 46.7718 41.5995 54.3102 32.3276 54.3102C23.0557 54.3102 15.5172 46.7718 15.5172 37.4999C15.5172 28.228 23.0557 20.6895 32.3276 20.6895C41.5995 20.6895 49.1379 28.228 49.1379 37.4999ZM46.5517 11.6378H41.3793V9.0516H46.5517V11.6378ZM51.7241 12.9309H49.1379V7.7585H51.7241V12.9309ZM54.3103 2.58608H62.069V18.1033H54.3103V2.58608Z" fill="white"/>
<path d="M18.1034 37.4999C18.1034 45.3487 24.4788 51.724 32.3275 51.724C40.1763 51.724 46.5517 45.3501 46.5517 37.4999C46.5517 29.6511 40.1763 23.2758 32.3275 23.2758C24.4788 23.2758 18.1034 29.6511 18.1034 37.4999ZM43.9655 37.4999C43.9655 43.9137 38.7413 49.1378 32.3275 49.1378C25.9137 49.1378 20.6896 43.9137 20.6896 37.4999C20.6896 31.0861 25.9137 25.862 32.3275 25.862C38.7413 25.862 43.9655 31.0861 43.9655 37.4999Z" fill="white"/>
</svg>
