<svg width="75" height="75" viewBox="0 0 75 75" fill="none" xmlns="http://www.w3.org/2000/svg">
<path d="M37.5 74.9999C27.4835 74.9999 18.067 71.0999 10.9835 64.0164C3.9 56.9329 0 47.5164 0 37.4999C0 27.4834 3.9 18.0655 10.9835 10.9834C18.067 3.89988 27.4835 -0.00012207 37.5 -0.00012207C47.5165 -0.00012207 56.933 3.89988 64.0165 10.9834C71.0987 18.0655 75 27.4834 75 37.4999C75 47.5164 71.1 56.9329 64.0165 64.0164C56.933 71.0985 47.5165 74.9999 37.5 74.9999ZM37.5 2.50032C28.1518 2.50032 19.3621 6.1405 12.7513 12.7512C6.14062 19.3619 2.50045 28.1503 2.50045 37.4999C2.50045 46.8481 6.14062 55.6378 12.7513 62.2485C19.3621 68.8593 28.1518 72.4994 37.5 72.4994C46.8482 72.4994 55.6379 68.8593 62.2487 62.2485C68.8594 55.6378 72.4995 46.8481 72.4995 37.4999C72.4995 28.1503 68.8594 19.3619 62.2487 12.7512C55.6379 6.1405 46.8482 2.50032 37.5 2.50032ZM37.5 67.4463C31.1853 67.4463 25.121 65.4682 19.9634 61.7262C19.4116 61.3258 19.283 60.557 19.6728 59.9972C22.7049 55.6633 29.7027 52.8628 37.5 52.8628C45.2799 52.8628 52.271 55.6686 55.3085 60.0106C55.6996 60.5691 55.5696 61.3392 55.0179 61.7396C49.867 65.4735 43.8094 67.4463 37.5 67.4463ZM22.5214 60.4552C27.0027 63.3976 32.1536 64.9472 37.5 64.9472C42.8397 64.9472 47.9839 63.403 52.4598 60.4686C49.5402 57.3776 43.7464 55.3633 37.5 55.3633C31.2402 55.3633 25.4384 57.3722 22.5214 60.4552ZM62.8768 52.1115C62.7763 52.1115 62.6759 52.0994 62.5754 52.074C58.6366 51.0936 55.8857 47.5847 55.8857 43.5401C55.8857 39.0427 59.258 36.249 64.6875 36.249C65.2085 36.249 65.7737 36.3079 66.367 36.4231C66.9321 36.5329 67.35 37.0151 67.3768 37.5909C67.3835 37.7436 67.3942 37.895 67.4049 38.0463C67.4263 38.353 67.4478 38.6704 67.4478 39.0093C67.4478 43.9539 66.229 47.195 63.9817 51.4459C63.7607 51.8624 63.3308 52.1115 62.8768 52.1115ZM64.6875 38.7494C62.7924 38.7494 58.3848 39.2168 58.3848 43.5414C58.3848 46.1088 59.9357 48.3749 62.2554 49.3445C64.042 45.8316 64.9473 43.1021 64.9473 39.0106C64.9473 38.9276 64.946 38.8432 64.942 38.7575C64.8549 38.7521 64.7692 38.7494 64.6875 38.7494ZM12.1205 52.1075C11.6652 52.1075 11.2353 51.8584 11.0156 51.4418C8.74955 47.1561 7.55223 42.3347 7.55223 37.4999C7.55223 37.161 7.57366 36.8423 7.59375 36.5343C7.60446 36.3789 7.61518 36.2249 7.62187 36.0695C7.64866 35.4923 8.06652 35.0088 8.63304 34.899C9.17946 34.7932 9.75937 34.7383 10.3112 34.7383C15.1647 34.7383 19.1143 38.6878 19.1143 43.5414C19.1143 47.5834 16.3621 51.091 12.4219 52.07C12.3228 52.0954 12.221 52.1075 12.1205 52.1075ZM8.80179 37.4999H10.0513C10.0513 41.6409 10.9594 45.6173 12.7513 49.3351C15.067 48.3642 16.6138 46.1021 16.6138 43.5414C16.6138 40.0659 13.7866 37.2387 10.3112 37.2387C10.2268 37.2387 10.1424 37.2401 10.0567 37.2441C10.054 37.3298 10.0513 37.4155 10.0513 37.4999H8.80179ZM64.9995 31.2494H10.0004C9.61071 31.2494 9.24375 31.0673 9.0067 30.7579C8.76964 30.4485 8.69196 30.0468 8.79375 29.6704C10.4946 23.4267 14.2152 17.8017 19.2737 13.8334C24.5129 9.72175 30.8156 7.54943 37.5 7.54943C44.1844 7.54943 50.4871 9.72175 55.7263 13.8334C60.7835 17.8017 64.5054 23.4253 66.2062 29.6704C66.308 30.0468 66.2304 30.4485 65.9933 30.7579C65.7562 31.0686 65.3893 31.2494 64.9995 31.2494ZM11.6879 28.7503H63.3134C61.5911 23.6557 58.3915 19.1034 54.1848 15.8021C49.3875 12.0401 43.6192 10.0512 37.5 10.0512C31.3808 10.0512 25.6112 12.0401 20.8165 15.8021C16.6085 19.1021 13.4089 23.6543 11.6879 28.7503Z" fill="white"/>
<path d="M37.4479 47.4992C30.2921 47.4992 24.8948 44.8126 24.8948 41.2487C24.8948 37.6849 30.2908 34.9983 37.4479 34.9983C44.6037 34.9983 49.9997 37.6849 49.9997 41.2487C49.9997 44.8126 44.6037 47.4992 37.4479 47.4992ZM37.4479 37.5001C34.5992 37.5001 31.9408 37.9822 29.9613 38.8581C28.3783 39.5586 27.3952 40.4746 27.3952 41.2501C27.3952 42.0255 28.3783 42.9416 29.9613 43.642C31.9408 44.5179 34.5992 45.0001 37.4479 45.0001C40.2966 45.0001 42.955 44.5179 44.9345 43.642C46.5175 42.9416 47.5006 42.0255 47.5006 41.2501C47.5006 40.4746 46.5175 39.5586 44.9345 38.8581C42.955 37.9822 40.2966 37.5001 37.4479 37.5001Z" fill="#E20912"/>
</svg>
