<svg width="95" height="75" viewBox="0 0 95 75" fill="none" xmlns="http://www.w3.org/2000/svg">
<path d="M74.1178 46.9597L77.2633 43.8143C79.2394 42.1758 80.3371 39.9701 80.3561 37.5979C80.3751 35.1803 79.2804 32.9075 77.2721 31.1915L74.1222 28.0431C72.9485 26.7802 71.481 25.9617 69.8878 25.6533V18.0118H74.9144C76.4725 18.0118 77.7383 16.7446 77.7383 15.1879V12.5701C77.7383 11.012 76.4711 9.74622 74.9144 9.74622H61.8283C60.2702 9.74622 59.0044 11.0135 59.0044 12.5701V15.1865C59.0044 16.7446 60.2717 18.0104 61.8283 18.0104H66.8549V25.6869C65.3319 26.0216 63.9404 26.8314 62.8325 28.049L59.7031 31.1769C58.0441 32.5245 56.9683 34.1879 56.5649 35.9828H38.3221C37.9552 34.1791 36.9511 32.5187 35.3959 31.19L32.246 28.0416C31.0723 26.7788 29.6048 25.9603 28.0117 25.6519V18.0104H33.0383C34.5964 18.0104 35.8622 16.7431 35.8622 15.1865V12.5701C35.8622 11.012 34.5949 9.74622 33.0383 9.74622H19.9521C18.3955 9.74622 17.1282 11.0135 17.1282 12.5701V15.1865C17.1282 16.7446 18.3955 18.0104 19.9521 18.0104H24.9787V25.6869C23.4557 26.0216 22.0642 26.8314 20.9563 28.049L17.8269 31.1769C15.633 32.9586 14.4563 35.29 14.5119 37.7528C14.5645 40.1119 15.7484 42.2708 17.8503 43.842L20.9534 46.9466C22.0554 48.1685 23.4499 48.9812 24.9787 49.313V56.9866H19.9521C18.3955 56.9866 17.1282 58.2539 17.1282 59.8105V62.4269C17.1282 63.985 18.3955 65.2508 19.9521 65.2508H33.0383C34.5964 65.2508 35.8622 63.9835 35.8622 62.4269V59.8105C35.8622 58.2524 34.5949 56.9866 33.0383 56.9866H28.0117V49.3408C29.5975 49.0309 31.0636 48.2138 32.2431 46.9583L35.3886 43.8128C36.9642 42.5061 37.9786 40.8384 38.3367 39.0142H56.5284C56.9011 40.8749 58.0061 42.5558 59.7265 43.842L62.8295 46.9466C63.9316 48.1685 65.326 48.9812 66.8549 49.313V56.9866H61.8283C60.2702 56.9866 59.0044 58.2539 59.0044 59.8105V62.4269C59.0044 63.985 60.2717 65.2508 61.8283 65.2508H74.9144C76.4725 65.2508 77.7383 63.9835 77.7383 62.4269V59.8105C77.7383 58.2524 76.4711 56.9866 74.9144 56.9866H69.8878V49.3408C71.4723 49.0323 72.9383 48.2153 74.1178 46.9597ZM62.0344 12.7777H74.7054V14.9804H62.0344V12.7777ZM20.1597 12.7777H32.8307V14.9804H20.1597V12.7777ZM32.8322 62.2222H20.1612V60.0195H32.8322V62.2222ZM74.7069 62.2222H62.0359V60.0195H74.7069V62.2222ZM33.4095 41.5166C33.3701 41.5487 33.3321 41.5838 33.2955 41.6189L30.0813 44.833C30.0697 44.8447 30.0565 44.8579 30.0448 44.8696C29.0904 45.8913 27.8553 46.4525 26.5602 46.4525C26.5427 46.4525 26.5266 46.4525 26.5091 46.4525C25.2477 46.4379 24.0667 45.8854 23.1838 44.8959C23.1648 44.874 23.1458 44.8535 23.1254 44.833L19.9127 41.6189C19.8571 41.5633 19.7972 41.5122 19.7329 41.4654C18.3516 40.4583 17.5726 39.1151 17.5404 37.6856C17.5068 36.1655 18.3049 34.6746 19.7855 33.4907C19.8294 33.4556 19.8717 33.4176 19.9112 33.3781L23.1239 30.1654C23.1429 30.1464 23.1605 30.1274 23.178 30.1084C24.0798 29.1072 25.2784 28.5518 26.5529 28.5444C26.5617 28.5444 26.5705 28.5444 26.5792 28.5444C27.8713 28.5444 29.0977 29.1043 30.0375 30.1216C30.0507 30.1362 30.0653 30.1508 30.0799 30.1654L33.294 33.3781C33.3247 33.4088 33.3554 33.438 33.3891 33.4643C34.7279 34.5927 35.4587 36.0515 35.4471 37.5716C35.4383 39.0537 34.7133 40.4539 33.4095 41.5166ZM65.0615 44.8959C65.0425 44.874 65.0235 44.8535 65.003 44.833L61.7903 41.6189C61.7348 41.5633 61.6748 41.5122 61.6105 41.4654C60.2293 40.4583 59.4502 39.1151 59.4181 37.6856C59.3844 36.1655 60.1825 34.6746 61.6631 33.4907C61.707 33.4556 61.7494 33.4176 61.7888 33.3781L65.0015 30.1654C65.0205 30.1464 65.0381 30.1274 65.0556 30.1084C65.9575 29.1072 67.156 28.5518 68.4306 28.5444C68.4393 28.5444 68.4481 28.5444 68.4569 28.5444C69.749 28.5444 70.9753 29.1043 71.9151 30.1216C71.9283 30.1362 71.9429 30.1508 71.9575 30.1654L75.1717 33.3781C75.2024 33.4088 75.2331 33.438 75.2667 33.4643C76.6056 34.5927 77.3364 36.0515 77.3247 37.5716C77.313 39.0508 76.588 40.451 75.2857 41.5151C75.2462 41.5473 75.2082 41.5823 75.1717 41.6174L71.9575 44.8316C71.9458 44.8433 71.9327 44.8564 71.921 44.8681C70.9665 45.8898 69.7314 46.4511 68.4364 46.4511C68.4189 46.4511 68.4028 46.4511 68.3853 46.4511C67.1253 46.4379 65.9443 45.8854 65.0615 44.8959Z" fill="white"/>
<path d="M85.0664 75H9.8018C9.39985 75 9.01397 74.8407 8.73041 74.5557L0.44434 66.2696C0.159319 65.9846 0 65.6002 0 65.1982V9.8018C0 9.39985 0.159319 9.01397 0.44434 8.73041L8.73041 0.44434C9.01544 0.159319 9.39985 0 9.8018 0H85.0664C85.4683 0 85.8542 0.159319 86.1377 0.44434L94.4238 8.73041C94.7074 9.01397 94.8682 9.39985 94.8682 9.8018V65.1967C94.8682 65.5987 94.7088 65.9846 94.4238 66.2681L86.1377 74.5542C85.8542 74.8407 85.4683 75 85.0664 75ZM10.4303 71.9685H84.4393L91.8382 64.5697V10.4303L84.4393 3.03145H10.4303L3.03145 10.4303V64.5697L10.4303 71.9685Z" fill="#E20912"/>
</svg>
