<svg width="82" height="26" viewBox="0 0 82 26" fill="none" xmlns="http://www.w3.org/2000/svg">
<path d="M10.3735 8.01822C10.6077 8.09499 10.9902 8.74431 11.1399 8.9473L16.1197 15.7085L24.7287 8.9473C24.9876 8.74431 25.7176 8.09499 25.9935 8.01822C26.2225 8.2043 26.7586 9.02928 26.9981 9.36109C27.3637 9.86467 27.6461 10.2498 27.9883 10.717C28.6207 11.5771 29.3481 12.5791 29.9922 13.4522L30.0781 13.5693L33.702 0L28.1835 0.00520494C27.3637 0.713077 26.5218 1.33767 25.6903 1.98699L20.7209 5.90111C20.3943 6.16396 18.4424 7.74105 18.2303 7.83735C18.0703 7.74105 16.9655 6.16396 16.7794 5.90111L13.9115 1.98699C13.4288 1.33897 12.9226 0.713077 12.4815 0.00520494L6.96812 0L3.30904 13.5693L3.45869 13.4522C4.56994 12.5791 5.83604 11.5771 6.93038 10.717C7.52375 10.2498 8.01301 9.86597 8.64932 9.36109C9.06701 9.02928 10.0455 8.2043 10.3735 8.01822ZM26.7703 25.8946L19.836 16.4593L24.7742 12.5569L28.8263 18.1796L26.7703 25.8946ZM0 25.8946L11.9987 16.4593L9.1555 12.5556L2.08588 18.1783L0 25.8946Z" fill="#D9D9D9"/>
<path d="M42.0377 4.84058H39.0722L36.8965 12.9473H39.4105L40.6961 8.1314L43.0969 12.9473H44.0715L49.0852 8.10278L47.7852 12.9473H50.2706L52.4463 4.84058H49.5081L44.5217 9.72802L42.0377 4.84058Z" fill="#D9D9D9"/>
<path d="M53.6318 12.9473H51.1035L53.2792 4.84058H55.8075L53.6318 12.9473Z" fill="#D9D9D9"/>
<path d="M58.3539 7.77755L59.1451 4.83936H56.6454L54.4697 12.9474H56.9694L57.7606 9.99485H64.7521L63.9609 12.9474H66.4606L67.5341 8.92263L66.5166 7.77885H64.6948L68.5088 4.84066H65.2323L61.404 7.77885H58.3539V7.77755Z" fill="#D9D9D9"/>
<path d="M67.2974 12.9473L67.8907 10.7586H76.959L77.1568 10.0104H69.3598L68.3709 8.90824L69.1477 5.98436L70.6728 4.84058H82L79.8114 7.04357H71.3793L71.1816 7.79178H79.0202L79.9519 8.90694L79.1751 11.7879L77.7489 12.946H67.2974V12.9473Z" fill="#D9D9D9"/>
<path d="M37.8322 17.4678L38.5049 14.9083H36.3761L34.5244 21.9701H36.6532L37.326 19.3989H43.2778L42.6038 21.9701H44.7326L45.6461 18.4633L44.7808 17.4665H43.2297L46.4763 14.907H43.6864L40.4281 17.4665H37.8322V17.4678Z" fill="#D9D9D9"/>
<path d="M48.2718 14.9097L47.046 15.8075L45.4351 21.9715H47.5639L48.0089 20.2734H53.6107L53.1657 21.9715H55.2945L56.9055 15.8075L56.1598 14.9097H48.2718ZM48.2718 19.3144L48.9211 16.829H54.5125L54.1156 18.3553H49.2334L48.2718 19.3144Z" fill="#D9D9D9"/>
<path d="M56.2666 21.9713L57.2165 18.3539H64.9966L65.3935 16.8275H57.2048L59.0929 14.9082H66.9693L67.7864 15.8685L66.8613 19.4118H66.0441L66.657 20.1496L66.1755 21.97H64.0467L64.2874 21.0474L63.59 20.2966H58.8404L58.4071 21.97H56.2666V21.9713Z" fill="#D9D9D9"/>
<path d="M71.3011 21.9713L72.6478 16.8158H68.2354L68.5594 15.6096L69.4845 14.9082H79.6446L79.1397 16.8158H74.7754L73.4286 21.9713H71.3011Z" fill="#D9D9D9"/>
</svg>
