<svg width="100" height="32" viewBox="0 0 100 32" fill="none" xmlns="http://www.w3.org/2000/svg">
<path d="M12.6506 9.77831C12.9362 9.87194 13.4027 10.6638 13.5852 10.9113L19.6582 19.1567L30.1569 10.9113C30.4727 10.6638 31.363 9.87194 31.6994 9.77831C31.9787 10.0052 32.6325 11.0113 32.9244 11.416C33.3704 12.0301 33.7147 12.4998 34.1321 13.0695C34.9033 14.1184 35.7903 15.3403 36.5758 16.4051L36.6806 16.5479L41.1 0L34.3701 0.00634749C33.3704 0.869607 32.3437 1.63131 31.3296 2.42316L25.2694 7.19647C24.8711 7.51702 22.4908 9.44031 22.2321 9.55774C22.0369 9.44031 20.6897 7.51702 20.4627 7.19647L16.9653 2.42316C16.3765 1.63289 15.7592 0.869607 15.2213 0.00634749L8.49771 0L4.03542 16.5479L4.21791 16.4051C5.5731 15.3403 7.11713 14.1184 8.45169 13.0695C9.1753 12.4998 9.77197 12.0317 10.5479 11.416C11.0573 11.0113 12.2507 10.0052 12.6506 9.77831ZM32.6467 31.5788L24.1903 20.0724L30.2125 15.3133L35.154 22.1702L32.6467 31.5788ZM0 31.5788L14.6326 20.0724L11.1652 15.3117L2.54376 22.1686L0 31.5788Z" fill="#E20912"/>
<path d="M51.2653 5.9032H47.6489L44.9956 15.7894H48.0614L49.6293 9.9164L52.5571 15.7894H53.7456L59.8599 9.88149L58.2746 15.7894H61.3055L63.9587 5.9032H60.3756L54.2947 11.8635L51.2653 5.9032Z" fill="white"/>
<path d="M65.4046 15.7894H62.3213L64.9745 5.9032H68.0578L65.4046 15.7894Z" fill="white"/>
<path d="M71.1636 9.48471L72.1284 5.90155H69.08L66.4268 15.7894H69.4751L70.44 12.1887H78.9662L78.0014 15.7894H81.0498L82.359 10.8812L81.118 9.4863H78.8964L83.5475 5.90314H79.5518L74.8832 9.4863H71.1636V9.48471Z" fill="white"/>
<path d="M82.0698 15.7894L82.7934 13.1203H93.8524L94.0936 12.2078H84.585L83.379 10.8638L84.3264 7.29806L86.1862 5.9032H99.9999L97.3308 8.58977H87.0478L86.8066 9.50223H96.366L97.5022 10.8622L96.5548 14.3755L94.8156 15.7878H82.0698V15.7894Z" fill="white"/>
<path d="M46.1369 21.3022L46.9573 18.1808H44.3611L42.103 26.7927H44.6992L45.5196 23.6571H52.7779L51.9559 26.7927H54.552L55.666 22.5161L54.6108 21.3006H52.7192L56.6785 18.1792H53.2762L49.3027 21.3006H46.1369V21.3022Z" fill="white"/>
<path d="M58.8681 18.1824L57.3732 19.2773L55.4087 26.7943H58.0048L58.5475 24.7235H65.379L64.8363 26.7943H67.4324L69.397 19.2773L68.4877 18.1824H58.8681ZM58.8681 23.5539L59.6599 20.523H66.4787L65.9947 22.3844H60.0408L58.8681 23.5539Z" fill="white"/>
<path d="M68.6182 26.7943L69.7766 22.3828H79.2645L79.7485 20.5214H69.7623L72.0649 18.1808H81.6702L82.6668 19.3519L81.5385 23.673H80.5419L81.2894 24.5727L80.7022 26.7927H78.1061L78.3996 25.6677L77.5491 24.752H71.757L71.2286 26.7927H68.6182V26.7943Z" fill="white"/>
<path d="M86.9525 26.7943L88.595 20.5071H83.2139L83.609 19.0361L84.7373 18.1808H97.1276L96.5119 20.5071H91.1895L89.5471 26.7943H86.9525Z" fill="white"/>
</svg>
