<svg width="100" height="32" viewBox="0 0 100 32" fill="none" xmlns="http://www.w3.org/2000/svg">
<path d="M12.6506 9.77831C12.9362 9.87194 13.4027 10.6638 13.5852 10.9113L19.6582 19.1567L30.1569 10.9113C30.4727 10.6638 31.363 9.87194 31.6994 9.77831C31.9787 10.0052 32.6325 11.0113 32.9244 11.416C33.3704 12.0301 33.7147 12.4998 34.1321 13.0695C34.9033 14.1184 35.7903 15.3403 36.5758 16.4051L36.6806 16.5479L41.1 0L34.3701 0.00634749C33.3704 0.869607 32.3437 1.63131 31.3296 2.42316L25.2694 7.19647C24.8711 7.51702 22.4908 9.44031 22.2321 9.55774C22.0369 9.44031 20.6897 7.51702 20.4627 7.19647L16.9653 2.42316C16.3765 1.63289 15.7592 0.869607 15.2213 0.00634749L8.49771 0L4.03542 16.5479L4.21791 16.4051C5.5731 15.3403 7.11713 14.1184 8.45169 13.0695C9.1753 12.4998 9.77197 12.0317 10.5479 11.416C11.0573 11.0113 12.2507 10.0052 12.6506 9.77831ZM32.6467 31.5788L24.1903 20.0724L30.2125 15.3133L35.154 22.1702L32.6467 31.5788ZM0 31.5788L14.6326 20.0724L11.1652 15.3117L2.54376 22.1686L0 31.5788Z" fill="#E20912"/>
<path d="M51.2656 5.9032H47.6491L44.9958 15.7894H48.0617L49.6295 9.9164L52.5573 15.7894H53.7459L59.8601 9.88149L58.2748 15.7894H61.3057L63.959 5.9032H60.3758L54.2949 11.8635L51.2656 5.9032Z" fill="black"/>
<path d="M65.4046 15.7894H62.3213L64.9745 5.9032H68.0578L65.4046 15.7894Z" fill="black"/>
<path d="M71.1633 9.48471L72.1281 5.90155H69.0798L66.4265 15.7894H69.4749L70.4397 12.1887H78.966L78.0012 15.7894H81.0496L82.3587 10.8812L81.1178 9.4863H78.8962L83.5473 5.90314H79.5515L74.883 9.4863H71.1633V9.48471Z" fill="black"/>
<path d="M82.0699 15.7894L82.7936 13.1203H93.8525L94.0937 12.2078H84.5851L83.3791 10.8638L84.3265 7.29806L86.1863 5.9032H100L97.3309 8.58977H87.048L86.8068 9.50223H96.3661L97.5023 10.8622L96.5549 14.3755L94.8157 15.7878H82.0699V15.7894Z" fill="black"/>
<path d="M46.1367 21.3022L46.9572 18.1808H44.361L42.1029 26.7927H44.699L45.5194 23.6571H52.7778L51.9558 26.7927H54.5519L55.6659 22.5161L54.6106 21.3006H52.7191L56.6783 18.1792H53.2761L49.3025 21.3006H46.1367V21.3022Z" fill="black"/>
<path d="M58.8682 18.1824L57.3734 19.2773L55.4088 26.7943H58.0049L58.5476 24.7235H65.3791L64.8364 26.7943H67.4326L69.3971 19.2773L68.4878 18.1824H58.8682ZM58.8682 23.5539L59.66 20.523H66.4788L65.9948 22.3844H60.0409L58.8682 23.5539Z" fill="black"/>
<path d="M68.618 26.7943L69.7765 22.3828H79.2644L79.7484 20.5214H69.7622L72.0647 18.1808H81.6701L82.6666 19.3519L81.5384 23.673H80.5418L81.2892 24.5727L80.7021 26.7927H78.106L78.3995 25.6677L77.549 24.752H71.7569L71.2284 26.7927H68.618V26.7943Z" fill="black"/>
<path d="M86.9528 26.7943L88.5952 20.5071H83.2141L83.6092 19.0361L84.7375 18.1808H97.1278L96.5121 20.5071H91.1897L89.5473 26.7943H86.9528Z" fill="black"/>
</svg>
