<svg width="26" height="17" viewBox="0 0 26 17" fill="none" xmlns="http://www.w3.org/2000/svg">
<path d="M1.90248 0C1.65788 0 1.42346 0.0452971 1.20887 0.128531L12.3565 9.58148C12.7585 9.92178 13.2636 9.92178 13.6645 9.58148L24.7917 0.128531C24.5771 0.0452971 24.3427 0 24.0981 0H1.90248ZM0.0198175 1.62504C0.00679457 1.71506 0 1.80906 0 1.90248V14.5857C0 14.8524 0.0503931 15.1089 0.148348 15.3387L7.88737 8.28372L0.0198175 1.62504ZM25.9807 1.62504L18.133 8.27409L25.8517 15.3387C25.9496 15.1089 26 14.8524 26 14.5857V1.90248C26 1.80906 25.9938 1.71506 25.9807 1.62504ZM16.6767 9.5124L14.8931 11.0282C13.8117 11.946 12.2093 11.9443 11.1278 11.0282L9.35443 9.52203L1.72412 16.478C1.78188 16.4831 1.84303 16.4876 1.90248 16.4876H24.0981C24.1609 16.4876 24.2255 16.4836 24.2861 16.478L16.6767 9.5124Z" fill="#E20912"/>
</svg>
