<svg width="135" height="41" viewBox="0 0 135 41" fill="none" xmlns="http://www.w3.org/2000/svg">
    <path d="M53.9788 30.8856L54.7144 28.2444H52.3892L50.3662 35.5334H52.6914L53.4269 32.879H59.9302L59.1947 35.5334H61.5197L62.5182 31.9143L61.5722 30.8856H59.8776L63.425 28.2444H60.3768L56.8162 30.8856H53.9788ZM65.3824 28.2444L64.0426 29.1711L62.2821 35.5334H64.6207L65.317 33.0442L65.8952 33.7807H71.2157L70.7297 35.5334H73.0549L74.8153 29.1711L74.0009 28.2444H65.3824ZM65.6581 31.7999L66.0919 30.2255H72.201L71.7678 31.7999H65.6581ZM74.1195 35.5334L75.1572 31.7999H83.6575L84.0909 30.2255H75.1443L77.2067 28.2444H85.8118L86.7052 29.235L85.6939 32.8923H84.8006L85.4704 33.6539L84.945 35.5334H82.6198L82.8826 34.5811L82.1199 33.8061H76.931L76.4579 35.5334H74.1195ZM90.5417 35.5334L92.0131 30.2124H87.1917L87.5465 28.9679L88.5576 28.2444H99.6595L99.1074 30.2124H94.3383L92.8669 35.5334H90.5417ZM100.775 35.5334H98.4245L100.198 29.1585L101.538 28.2444H102.799L100.775 35.5334ZM101.551 35.5334L103.574 28.2444H105.82L110.878 32.5743L112.087 28.2444H114.413L112.39 35.5334H110.077L105.085 31.2158L103.889 35.5334H101.551ZM114.898 29.2476L113.427 34.5554L114.255 35.5334H120.745L121.743 34.7841L121.534 35.5334H123.859L124.896 31.7999H122.571L122.084 33.5523H116.028L116.949 30.2255H124.778L126.814 28.2444H116.317L114.898 29.2476Z" fill="white" />
    <path d="M58.7235 2.73333H63.9881L68.4 11.5206L77.2495 2.73333H82.464L78.6035 17.3111H74.1911L76.4975 8.59985L67.5979 17.3111H65.8681L61.6066 8.65066L59.3252 17.3111H54.8628L58.7235 2.73333Z" fill="white" />
    <path d="M80.0825 17.3111H84.5702L88.4305 2.73333H83.9435L80.0825 17.3111Z" fill="white" />
    <path d="M94.3468 2.73333L92.9428 8.01599H98.3576L105.152 2.73333H110.967L104.199 8.01599H107.433L109.237 10.0732L107.333 17.3111H102.895L104.299 12.0033H91.8902L90.4862 17.3111H86.0488L89.9098 2.73333H94.3468Z" fill="white" />
    <path d="M109.865 13.3745L108.812 17.3111H127.363L129.894 15.2284L131.274 10.0477L129.619 8.0412H115.705L116.056 6.69537H131.022L134.909 2.73331H114.803L112.095 4.79043L110.717 10.0477L112.471 12.0285H126.309L125.958 13.3745H109.865Z" fill="white" />
    <path d="M53.3563 21.5401H61.766L61.2901 23.2915H54.8978L54.739 23.8827H62.0493L61.5732 25.6117H52.2456L53.3563 21.5401ZM53.8096 19.8557L54.6711 19.2088H64.7468L62.9901 20.9489H53.5151L53.8096 19.8557Z" fill="#49D3FF" />
    <path d="M63.6948 24.9647L64.6242 21.5401H66.6304L65.9955 23.8827H74.0539L72.2746 25.6117H64.1823L63.6948 24.9647ZM67.265 19.2088L66.7889 20.9489H64.783L65.2588 19.2088H67.265Z" fill="#49D3FF" />
    <path d="M75.1937 21.5401H83.6034L83.1275 23.2915H76.7352L76.5764 23.8827H83.8867L83.4109 25.6117H74.083L75.1937 21.5401ZM75.647 19.8557L76.5085 19.2088H86.5843L84.8275 20.9489H75.3525L75.647 19.8557Z" fill="#49D3FF" />
    <path d="M87.844 23.8827H95.1543L94.6785 25.6117H85.3506L86.4613 21.5401H88.4789L87.844 23.8827ZM86.9146 19.8557L87.7761 19.2088H97.8518L96.0951 20.9489H86.6201L86.9146 19.8557Z" fill="#49D3FF" />
    <path d="M101.837 20.9489V20.9378H97.6777L97.9837 19.8446L98.8563 19.2088H108.434L107.958 20.9378H103.843V20.9489H101.837ZM100.568 25.6117L101.678 21.5401H103.685L102.574 25.6117H100.568Z" fill="#49D3FF" />
    <path d="M107.604 25.6117L108.499 22.3321H115.832L116.047 21.5401H118.065L117.589 23.2915H116.818L117.396 23.9608L116.943 25.6117H114.937L115.163 24.7751L114.506 24.0946H110.029L109.621 25.6117H107.604ZM108.488 20.9489L110.267 19.2088H117.691L118.461 20.0789L118.223 20.9489H108.488Z" fill="#49D3FF" />
    <path d="M118.612 25.6117L117.842 24.7751L118.726 21.5401H120.743L120.109 23.8827H125.741L126.376 21.5401H128.394L127.498 24.8085L126.331 25.6117H118.612ZM120.902 20.9378V20.9489H118.884L119.134 20.0342L120.358 19.2088H128.076L128.813 20.0119L128.552 20.9489H126.535V20.9378H120.902Z" fill="#49D3FF" />
    <path d="M15.2262 12.1323C15.5701 12.2483 16.1305 13.2305 16.3508 13.5367L23.659 23.7672L36.2942 13.5367C36.6739 13.2305 37.7458 12.2483 38.15 12.1323C38.4852 12.4128 39.2721 13.6615 39.6254 14.1632C40.1624 14.9256 40.5756 15.5085 41.0794 16.2144C42.0083 17.5156 43.0759 19.0317 44.0207 20.352L44.147 20.529L49.4665 0L41.3667 0.00812894C40.1636 1.07885 38.9273 2.0246 37.7081 3.00555L30.4146 8.92801C29.9348 9.32501 27.0706 11.712 26.7595 11.858C26.5247 11.712 24.9032 9.32501 24.6301 8.92801L20.4206 3.00555C19.7121 2.0246 18.9684 1.07885 18.3227 0.00812894L10.2272 0L4.8571 20.529L5.07568 20.352C6.70784 19.0317 8.56485 17.5156 10.1713 16.2144C11.0426 15.5085 11.7593 14.9256 12.6933 14.1632C13.3078 13.6615 14.745 12.4128 15.2262 12.1323ZM39.2934 39.1779L29.1154 24.9024L36.3628 18.9974L42.3092 27.5047L39.2934 39.1779ZM0 39.1779L17.6115 24.9024L13.4389 18.9974L3.06244 27.5047L0 39.1779Z" fill="#49D3FF" />
  </svg>