<svg width="1238" height="352" viewBox="0 0 1238 352" fill="none" xmlns="http://www.w3.org/2000/svg">
<path d="M588.408 62.1067H540.241L504.917 193.763H545.745L566.619 115.548L605.61 193.763H621.437L702.862 115.089L681.761 193.763H722.131L757.452 62.1067H709.744L628.775 141.467L588.408 62.1067ZM511.649 245.138L518.393 220.082H497.073L478.523 289.227H499.845L506.587 264.048H566.217L559.473 289.227H580.793L589.947 254.896L581.274 245.138H565.737L598.262 220.082H570.312L537.666 245.138H511.649ZM140.095 108.798C143.259 109.839 148.415 118.647 150.442 121.393L217.684 213.136L333.94 121.393C337.433 118.647 347.295 109.839 351.015 108.798C354.099 111.314 361.339 122.512 364.589 127.011C369.53 133.848 373.332 139.075 377.967 145.405C386.514 157.074 396.336 170.67 405.029 182.51L406.191 184.097L455.136 0L380.611 0.0728976C369.542 9.67479 358.167 18.1559 346.949 26.9527L279.843 80.0634C275.427 83.6236 249.074 105.029 246.212 106.338C244.05 105.029 229.132 83.6236 226.619 80.0634L187.888 26.9527C181.369 18.1559 174.526 9.67479 168.585 0.0728976L94.0998 0L44.6898 184.097L46.7007 182.51C61.7181 170.67 78.8043 157.074 93.5849 145.405C101.602 139.075 108.196 133.848 116.79 127.011C122.444 122.512 135.667 111.314 140.095 108.798ZM361.534 351.333L267.887 223.316L334.57 170.362L389.283 246.654L361.534 351.333ZM0 351.333L162.042 223.316L123.65 170.362L28.1772 246.654L0 351.333ZM616.211 220.082L603.924 228.874L587.784 289.227H609.225L615.611 265.615L620.912 272.601H669.696L665.239 289.227H686.56L702.703 228.874L695.235 220.082H616.211ZM618.739 253.81L622.716 238.875H678.731L674.759 253.81H618.739ZM696.322 289.227L705.837 253.81H783.777L787.752 238.875H705.718L724.629 220.082H803.53L811.722 229.48L802.449 264.173H794.259L800.401 271.398L795.583 289.227H774.262L776.672 280.193L769.68 272.843H722.1L717.763 289.227H696.322ZM846.9 289.227L860.392 238.751H816.184L819.436 226.945L828.708 220.082H930.503L925.44 238.751H881.712L868.221 289.227H846.9ZM940.736 289.227H919.179L935.437 228.754L947.724 220.082H959.291L940.736 289.227ZM947.846 289.227L966.396 220.082H986.993L1033.37 261.158L1044.45 220.082H1065.78L1047.23 289.227H1026.02L980.25 248.271L969.287 289.227H947.846ZM1070.23 229.598L1056.74 279.951L1064.33 289.227H1123.84L1132.99 282.12L1131.07 289.227H1152.39L1161.9 253.81H1140.58L1136.12 270.435H1080.59L1089.03 238.875H1160.82L1179.49 220.082H1083.24L1070.23 229.598ZM776.719 193.763H735.66L770.984 62.1067H812.039L776.719 193.763ZM853.325 109.816L866.17 62.1067H825.574L790.249 193.763H830.849L843.694 145.827H957.23L944.386 193.763H984.983L1002.41 128.395L985.9 109.816H956.313L1018.24 62.1067H965.029L902.868 109.816H853.325ZM998.515 193.763L1008.15 158.211H1155.4L1158.61 146.054H1032L1015.95 128.165L1028.56 80.6851L1053.33 62.1067H1237.29L1201.73 97.8892H1064.8L1061.59 110.044H1188.89L1204.03 128.165L1191.41 174.954L1168.25 193.763H998.515Z" fill="white"/>
<path d="M140.095 108.798C143.259 109.839 148.415 118.647 150.442 121.393L217.684 213.136L333.94 121.393C337.433 118.647 347.295 109.839 351.015 108.798C354.099 111.314 361.339 122.512 364.589 127.011C369.53 133.848 373.332 139.075 377.967 145.405C386.514 157.074 396.336 170.67 405.029 182.51L406.191 184.097L455.136 0L380.611 0.0728976C369.542 9.67479 358.167 18.1559 346.949 26.9527L279.843 80.0634C275.427 83.6236 249.074 105.029 246.212 106.338C244.05 105.029 229.132 83.6236 226.619 80.0634L187.888 26.9527C181.369 18.1559 174.526 9.67479 168.585 0.0728976L94.0998 0L44.6898 184.097L46.7007 182.51C61.7181 170.67 78.8043 157.074 93.5849 145.405C101.602 139.075 108.196 133.848 116.79 127.011C122.444 122.512 135.667 111.314 140.095 108.798ZM361.534 351.333L267.887 223.316L334.57 170.362L389.283 246.654L361.534 351.333ZM0 351.333L162.042 223.316L123.65 170.362L28.1772 246.654L0 351.333Z" fill="#E20912"/>
</svg>
