<svg width="20" height="20" viewBox="0 0 20 20" fill="none" xmlns="http://www.w3.org/2000/svg">
<path fill-rule="evenodd" clip-rule="evenodd" d="M7.67695 12.323C8.9214 13.5675 10.2882 14.569 11.6855 15.3051L14.307 12.631L19.0737 13.7302C19.5693 13.8453 20 14.146 20 14.654V17.9588C20 19.0202 19.1811 19.8964 18.1223 19.9694C13.9714 20.2574 9.17667 18.3894 5.39362 14.6068C1.60802 10.8208 -0.254837 6.02604 0.0280319 1.87772C0.10066 0.818875 0.976873 0 2.03869 0H5.3435C5.85147 0 6.15473 0.428125 6.26983 0.923783L7.36902 5.69305L4.69536 8.31447C5.43142 9.70885 6.43292 11.076 7.67738 12.323H7.67695Z" fill="#E20912"/>
</svg>
