<svg width="111" height="79" viewBox="0 0 111 79" fill="none" xmlns="http://www.w3.org/2000/svg">
<path d="M111 0H0V78.3289H111V0Z" fill="#CCDB2C"/>
<path d="M26.8055 51.5182C28.7624 51.5182 33.5867 51.1728 37.1918 48.5462V50.5449H44.4648L44.4701 41.765L47.5048 38.6203L54.1134 50.5449H62.841L52.8262 33.5083L62.5794 22.7714H53.6477L44.4701 33.3042V13.0705H37.1866V16.2728C34.968 13.892 31.3734 12.0921 25.7747 12.0921C13.646 12.0921 11.3699 19.4698 11.3699 23.5981C11.3699 29.27 14.4204 32.4252 19.7365 33.7176L27.2712 35.5751C31.2478 36.5588 34.089 37.2808 34.089 40.2214C34.089 44.1457 29.9554 45.0719 26.2404 45.0719C19.4278 45.0719 18.2924 41.1005 18.2924 38.9814H10.8101C10.8048 43.6277 13.1751 51.5182 26.8055 51.5182ZM31.7606 29.1759L22.63 26.9521C21.076 26.591 18.6534 25.9684 18.6534 23.033C18.6534 19.6791 22.2167 18.5384 25.2096 18.5384C32.0222 18.5384 32.6448 22.515 32.8489 24.2155H37.197V31.2008C35.5959 30.2694 33.7123 29.6677 31.7606 29.1759Z" fill="#818285"/>
<path d="M11.7462 63.3799C12.0759 63.5212 12.5468 63.6573 13.0543 63.6573C13.8915 63.6573 14.3049 63.155 14.3049 62.5951C14.3049 62.0562 13.9752 61.4963 13.7293 60.994L10.0928 53.3285H13.1066L15.9112 59.8586L18.6634 53.3285H21.5726L17.392 62.4538C16.2408 64.9811 15.2676 65.9543 13.2636 65.9543C12.6043 65.9543 12.0078 65.7816 11.7514 65.677V63.3799H11.7462Z" fill="#818285"/>
<path d="M27.177 56.7453H29.631V65.7293H27.177V62.1922C26.6904 62.3126 25.4346 62.5899 24.3044 62.5899C22.3213 62.5899 21.2905 61.3917 21.2905 59.4714V56.7348H23.7498V58.9638C23.7498 60.2719 24.0271 60.7219 25.1259 60.7219C25.7171 60.7219 26.8002 60.5649 27.1822 60.4603V56.7453H27.177Z" fill="#818285"/>
<path d="M37.2234 65.7294C37.1031 65.3997 37.0821 65.2584 37.0507 64.8608C36.2816 65.6299 35.2194 65.991 34.1415 65.991C32.1585 65.991 30.9341 64.9654 30.9341 63.2754C30.9341 60.926 33.0741 60.6435 34.8531 60.4185C36.4543 60.2092 37.0507 60.0679 37.0507 59.3406C37.0507 58.5191 36.5275 58.1372 35.4287 58.1372C34.2985 58.1372 33.8276 58.4825 33.6497 59.5133H31.3422C31.4835 57.5093 32.9119 56.4837 35.502 56.4837C37.3124 56.4837 39.421 56.9023 39.421 59.4086V63.2911C39.421 64.1126 39.4053 64.9654 39.735 65.7294H37.2234ZM35.2927 61.8312C34.4398 61.9725 33.4823 62.0772 33.4823 63.1707C33.4823 63.919 33.9846 64.3742 34.8374 64.3742C36.1246 64.3742 37.0351 63.6626 37.0351 62.3702V61.3603C36.4595 61.69 35.9206 61.7266 35.2927 61.8312Z" fill="#818285"/>
<path d="M45.4802 65.9596C42.7123 65.9596 40.9019 64.1125 40.9019 61.308C40.9019 58.3988 42.728 56.4837 45.5168 56.4837C47.9185 56.4837 49.5248 57.7918 49.7289 59.8795H47.3063C47.1336 58.8906 46.4848 58.3308 45.5325 58.3308C44.193 58.3308 43.3872 59.4086 43.3872 61.2557C43.3872 63.0504 44.1512 64.0759 45.475 64.0759C46.5371 64.0759 47.2017 63.448 47.39 62.2655H49.776C49.4673 64.5992 47.8662 65.9596 45.4802 65.9596Z" fill="#818285"/>
<path d="M55.3901 58.6446V65.7293H52.9309V58.6446H49.9746V56.7453H58.3464V58.6446H55.3901Z" fill="#818285"/>
<path d="M65.2478 65.7293V61.9515H61.7787V65.7293H59.3247V56.7453H61.7787V59.9998H65.2478V56.7453H67.7018V65.7293H65.2478Z" fill="#818285"/>
<path d="M75.5039 65.7293V59.6545L72.2964 65.7293H69.4971V56.7453H71.8621V62.8253L75.0643 56.7453H77.8689V65.7293H75.5039Z" fill="#818285"/>
<path d="M85.8121 65.7293L83.2168 61.8626L82.118 62.9771V65.7293H79.7007V56.7453H82.118V60.2981L85.4092 56.7453H88.3184L84.8389 60.2301L88.805 65.7293H85.8121Z" fill="#818285"/>
</svg>
