<?xml version="1.0" encoding="UTF-8"?>
<svg width="40px" height="40px" viewBox="0 0 40 40" version="1.1" xmlns="http://www.w3.org/2000/svg" xmlns:xlink="http://www.w3.org/1999/xlink">
    <title>Group</title>
    <g id="Page-1" stroke="none" stroke-width="1" fill="none" fill-rule="evenodd">
        <g id="Group">
            <rect id="Rectangle-Copy-2" x="0" y="0" width="40" height="40"></rect>
            <g id="vk-footer" transform="translate(5.000000, 5.000000)" fill="#D9D9D9">
                <path d="M2.10624,2.10626 C0,4.21876 0,7.6125 0,14.4 L0,15.6 C0,22.3874 0,25.7812 2.10624,27.8938 C4.21876,30.0000001 7.6125,30.0000001 14.4,30.0000001 L15.6,30.0000001 C22.3874,30.0000001 25.7812,30.0000001 27.8938,27.8938 C30,25.7812 30,22.3874 30,15.6 L30,14.4 C30,7.6125 30,4.21876 27.8938,2.10626 C25.7876,-0.00624999904 22.3874,1.08614518e-07 15.6,1.08614518e-07 L14.4,1.08614518e-07 C7.6125,1.08614518e-07 4.21876,1.08614518e-07 2.10624,2.10626 Z M5.0625,9.125 C5.225,16.925 9.125,21.6126 15.9625,21.6126 L16.35,21.6126 L16.35,17.15 C18.8625,17.4 20.7624,19.2375 21.525,21.6126 L25.075,21.6126 C24.1,18.0625 21.5376,16.1 19.9375,15.35 C21.5376,14.425 23.7874,12.175 24.325,9.125 L21.1,9.125 C20.4,11.6 18.325,13.85 16.35,14.0625 L16.35,9.125 L13.125,9.125 L13.125,17.775 C11.125,17.275 8.6,14.85 8.4875,9.125 L5.0625,9.125 Z" id="Shape"></path>
            </g>
        </g>
    </g>
</svg>