<?xml version="1.0" encoding="UTF-8"?>
<svg width="24px" height="24px" viewBox="0 0 24 24" version="1.1" xmlns="http://www.w3.org/2000/svg" xmlns:xlink="http://www.w3.org/1999/xlink">
    <title>Group 3</title>
    <g id="Page-1" stroke="none" stroke-width="1" fill="none" fill-rule="evenodd">
        <g id="Group-3">
            <rect id="Rectangle" x="0" y="0" width="24" height="24"></rect>
            <g id="vk" transform="translate(2.000000, 2.000000)" fill="#FFFFFF">
                <path d="M1.40417,1.40417 C0,2.8125 0,5.075 0,9.6 L0,10.4 C0,14.925 0,17.1875 1.40417,18.5958 C2.8125,20.0000001 5.075,20.0000001 9.6,20.0000001 L10.4,20.0000001 C14.925,20.0000001 17.1875,20.0000001 18.5958,18.5958 C20,17.1875 20,14.925 20,10.4 L20,9.6 C20,5.075 20,2.8125 18.5958,1.40417 C17.1917,-0.00416665936 14.925,7.24096747e-08 10.4,7.24096747e-08 L9.6,7.24096747e-08 C5.075,7.24096747e-08 2.8125,7.24096747e-08 1.40417,1.40417 Z M3.375,6.08333 C3.48333,11.2833 6.08333,14.4083 10.6417,14.4083 L10.9,14.4083 L10.9,11.4333 C12.575,11.6 13.8417,12.825 14.35,14.4083 L16.7167,14.4083 C16.0667,12.0417 14.3583,10.7333 13.2917,10.2333 C14.3583,9.61667 15.8583,8.11667 16.2167,6.08333 L14.0667,6.08333 C13.6,7.73333 12.2167,9.23333 10.9,9.375 L10.9,6.08333 L8.75,6.08333 L8.75,11.85 C7.41667,11.5167 5.73333,9.9 5.65833,6.08333 L3.375,6.08333 Z" id="Shape"></path>
            </g>
        </g>
    </g>
</svg>