<?xml version="1.0" encoding="UTF-8"?>
<svg width="20px" height="20px" viewBox="0 0 20 20" version="1.1" xmlns="http://www.w3.org/2000/svg" xmlns:xlink="http://www.w3.org/1999/xlink">
    <title>Group 2</title>
    <g id="Page-1" stroke="none" stroke-width="1" fill="none" fill-rule="evenodd">
        <g id="Group-2">
            <g id="youtube-footer" transform="translate(0.000000, 3.000000)" fill="#D9D9D9" fill-rule="nonzero">
                <path d="M16.6154,0 L3.38462,0 C2.48901,0 1.62637,0.335317 0.989011,0.928571 C0.357143,1.52698 0,2.3369 0,3.17778 L0,9.82222 C0,10.6631 0.357143,11.473 0.989011,12.0714 C1.62637,12.6698 2.48352,13 3.38462,13 L16.6154,13 C17.511,13 18.3736,12.6647 19.011,12.0714 C19.6484,11.473 20,10.6683 20,9.82222 L20,3.17778 C20,2.3369 19.6429,1.52698 19.011,0.928571 C18.3736,0.335317 17.511,0 16.6154,0 Z M13.9176,6.62897 L7.91758,9.51786 C7.86813,9.53849 7.81319,9.53849 7.76923,9.5127 C7.72527,9.4869 7.6978,9.44048 7.69231,9.38889 L7.69231,3.61111 C7.69231,3.55952 7.71978,3.5131 7.76923,3.4873 C7.81319,3.46151 7.87363,3.46151 7.91758,3.48214 L13.9176,6.37103 C13.967,6.39683 14,6.44325 14,6.5 C14,6.55675 13.967,6.60317 13.9176,6.62897 Z" id="Shape"></path>
            </g>
            <rect id="Rectangle-Copy" x="0" y="0" width="20" height="20"></rect>
        </g>
    </g>
</svg>