<?xml version="1.0" encoding="UTF-8"?>
<svg width="24px" height="24px" viewBox="0 0 24 24" version="1.1" xmlns="http://www.w3.org/2000/svg" xmlns:xlink="http://www.w3.org/1999/xlink">
    <title>Group 4</title>
    <g id="Page-1" stroke="none" stroke-width="1" fill="none" fill-rule="evenodd">
        <g id="Group-4">
            <rect id="Rectangle-Copy-3" x="0" y="0" width="24" height="24"></rect>
            <g id="youtube" transform="translate(0.000000, 4.000000)" fill="#FFFFFF" fill-rule="nonzero">
                <path d="M19.9385,0 L4.06154,0 C2.98681,0 1.95165,0.412698 1.18681,1.14286 C0.428571,1.87937 0,2.87619 0,3.91111 L0,12.0889 C0,13.1238 0.428571,14.1206 1.18681,14.8571 C1.95165,15.5937 2.98022,16 4.06154,16 L19.9385,16 C21.0132,16 22.0484,15.5873 22.8132,14.8571 C23.578,14.1206 24,13.1302 24,12.0889 L24,3.91111 C24,2.87619 23.5714,1.87937 22.8132,1.14286 C22.0484,0.412698 21.0132,0 19.9385,0 Z M16.7011,8.15873 L9.5011,11.7143 C9.44176,11.7397 9.37582,11.7397 9.32308,11.7079 C9.27033,11.6762 9.23736,11.619 9.23077,11.5556 L9.23077,4.44444 C9.23077,4.38095 9.26374,4.32381 9.32308,4.29206 C9.37582,4.26032 9.44835,4.26032 9.5011,4.28571 L16.7011,7.84127 C16.7604,7.87302 16.8,7.93016 16.8,8 C16.8,8.06984 16.7604,8.12698 16.7011,8.15873 Z" id="Shape"></path>
            </g>
        </g>
    </g>
</svg>