<?xml version="1.0" encoding="UTF-8"?>
<svg width="512px" height="512px" viewBox="0 0 512 512" version="1.1" xmlns="http://www.w3.org/2000/svg" xmlns:xlink="http://www.w3.org/1999/xlink">
    <title>Group 2</title>
    <g id="Page-1" stroke="none" stroke-width="1" fill="none" fill-rule="evenodd">
        <g id="Group-2">
            <rect id="Rectangle-Copy-2" x="0" y="0" width="512" height="512"></rect>
            <path d="M157.593849,180.812524 C161.151689,181.978912 166.963075,191.843445 169.236555,194.926657 L244.890472,297.643075 L375.677197,194.926657 C379.611251,191.843445 390.702092,181.978912 394.892769,180.812524 C398.372127,183.638988 406.516788,196.172399 410.153109,201.213917 C415.709119,208.864019 419.998209,214.71527 425.197937,221.812263 C434.8051,234.878852 445.854832,250.100574 455.640136,263.365236 L456.945674,265.144156 L512,59 L428.162803,59.0790734 C415.709119,69.8330604 402.919085,79.3219153 390.286015,89.1863241 L314.791552,148.649456 C309.829762,152.642682 280.177363,176.601915 276.954628,178.06479 C274.522939,176.601915 257.740302,152.642682 254.912467,148.649456 L211.343883,89.1863241 C204.008954,79.3415981 196.318988,69.8330604 189.618141,59.0790734 L105.85955,59 L50.2709255,265.144156 L52.5442803,263.365236 C69.4264526,250.100574 88.6610842,234.878852 105.28626,221.812263 C114.300574,214.71527 121.733544,208.883951 131.39963,201.213917 C137.74544,196.172399 152.612127,183.638988 157.593849,180.812524 Z M406.693684,452.390404 L301.348749,309.050336 L376.36983,249.764224 L437.928175,335.183513 L406.693684,452.390404 Z M0,452.390404 L182.284457,309.050336 L139.089596,249.744292 L31.6886891,335.163582 L0,452.390404 Z" id="Shape" fill="#E20912" fill-rule="nonzero"></path>
        </g>
    </g>
</svg>